<?xml version="1.0" encoding="utf-8" standalone="no"?>
<!DOCTYPE svg PUBLIC "-//W3C//DTD SVG 1.1//EN"
  "http://www.w3.org/Graphics/SVG/1.1/DTD/svg11.dtd">
<svg xmlns:xlink="http://www.w3.org/1999/xlink" width="460.8pt" height="345.6pt" viewBox="0 0 460.8 345.6" xmlns="http://www.w3.org/2000/svg" version="1.1">
 <metadata>
  <rdf:RDF xmlns:dc="http://purl.org/dc/elements/1.1/" xmlns:cc="http://creativecommons.org/ns#" xmlns:rdf="http://www.w3.org/1999/02/22-rdf-syntax-ns#">
   <cc:Work>
    <dc:type rdf:resource="http://purl.org/dc/dcmitype/StillImage"/>
    <dc:date>2022-05-30T15:26:20.222571</dc:date>
    <dc:format>image/svg+xml</dc:format>
    <dc:creator>
     <cc:Agent>
      <dc:title>Matplotlib v3.5.1, https://matplotlib.org/</dc:title>
     </cc:Agent>
    </dc:creator>
   </cc:Work>
  </rdf:RDF>
 </metadata>
 <defs>
  <style type="text/css">*{stroke-linejoin: round; stroke-linecap: butt}</style>
 </defs>
 <g id="figure_1">
  <g id="patch_1">
   <path d="M 0 345.6 
L 460.8 345.6 
L 460.8 0 
L 0 0 
z
" style="fill: #ffffff"/>
  </g>
  <g id="axes_1">
   <g id="patch_2">
    <path d="M 342.6048 174.528 
C 342.6048 169.873257 342.299478 165.223522 341.6908 160.608747 
C 341.082123 155.993972 340.1714 151.424088 338.964498 146.928533 
L 236.16 174.528 
L 342.6048 174.528 
z
" style="fill: #1f77b4"/>
   </g>
   <g id="patch_3">
    <path d="M 338.964498 146.928533 
C 337.983232 143.273443 336.807736 139.673284 335.443018 136.143396 
C 334.078299 132.613508 332.5263 129.158912 330.793633 125.794327 
L 236.16 174.528 
L 338.964498 146.928533 
z
" style="fill: #ff7f0e"/>
   </g>
   <g id="patch_4">
    <path d="M 330.793633 125.794327 
C 329.089055 122.484285 327.211984 119.265955 325.170162 116.152608 
C 323.128341 113.03926 320.924579 110.035183 318.567967 107.152763 
L 236.16 174.528 
L 330.793633 125.794327 
z
" style="fill: #2ca02c"/>
   </g>
   <g id="patch_5">
    <path d="M 318.567967 107.152763 
C 316.581985 104.723671 314.489573 102.383575 312.296861 100.139332 
C 310.104149 97.89509 307.81328 95.748894 305.430966 93.707033 
L 236.16 174.528 
L 318.567967 107.152763 
z
" style="fill: #d62728"/>
   </g>
   <g id="patch_6">
    <path d="M 305.430966 93.707033 
C 303.103128 91.711862 300.690177 89.818194 298.198864 88.031325 
C 295.707552 86.244456 293.140202 84.566055 290.503999 83.000817 
L 236.16 174.528 
L 305.430966 93.707033 
z
" style="fill: #9467bd"/>
   </g>
   <g id="patch_7">
    <path d="M 290.503999 83.000817 
C 280.474271 77.045695 269.533545 72.779482 258.120042 70.373058 
C 246.70654 67.966633 234.974711 67.452562 223.394467 68.851434 
C 211.814222 70.250306 200.542267 73.543192 190.030091 78.598198 
C 179.517916 83.653203 169.907773 90.401923 161.58459 98.574043 
C 153.261407 106.746162 146.337814 116.231094 141.091131 126.648927 
C 135.844449 137.066759 132.345676 148.276516 130.734952 159.829199 
C 129.124229 171.381882 129.423352 183.121158 131.620341 194.576818 
C 133.81733 206.032479 137.882454 217.049504 143.652888 227.186614 
C 149.423322 237.323724 156.820979 246.443743 165.549551 254.181374 
C 174.278124 261.919005 184.219495 268.169542 194.975471 272.682623 
C 205.731446 277.195704 217.156474 279.910258 228.792934 280.717556 
C 240.429393 281.524853 252.119817 280.41397 263.395953 277.429401 
C 274.67209 274.444832 285.381349 269.626965 295.094779 263.168777 
C 304.808209 256.710588 313.394365 248.699472 320.509336 239.456306 
C 327.624307 230.213141 333.171811 219.863007 336.929647 208.820472 
C 340.687483 197.777938 342.6048 186.192431 342.6048 174.528001 
L 236.16 174.528 
L 290.503999 83.000817 
z
" style="fill: #8c564b"/>
   </g>
   <g id="matplotlib.axis_1"/>
   <g id="matplotlib.axis_2"/>
   <g id="text_1">
    <!-- 商品分类:13230 -->
    <g transform="translate(352.243881 162.380884)scale(0.1 -0.1)">
     <defs>
      <path id="FangSong-5546" d="M 3975 225 
L 4650 -150 
Q 4750 -50 4750 400 
L 4775 3025 
L 1600 2775 
L 1600 -250 
Q 1600 -625 1525 -600 
L 1225 -150 
Q 1400 -100 1375 325 
L 1375 2700 
Q 1375 3100 1300 3300 
L 1350 3350 
L 1575 3000 
L 2650 3075 
Q 2550 3375 2300 3975 
Q 1175 3850 1000 3825 
L 650 4100 
Q 1100 4100 3225 4275 
Q 3200 4600 2800 5150 
L 2875 5225 
Q 3325 4850 3550 4650 
Q 3500 4525 3350 4275 
Q 5300 4425 5500 4525 
L 5900 4225 
Q 5400 4225 3900 4075 
L 4150 3875 
Q 4025 3725 3912 3575 
Q 3800 3425 3675 3175 
L 4725 3250 
L 4900 3500 
L 5200 3225 
L 5000 3025 
L 4975 250 
Q 4975 -400 4775 -675 
Q 4525 -350 3925 150 
L 3975 225 
z
M 2500 525 
Q 2500 350 2425 200 
L 2175 600 
Q 2275 725 2275 1150 
L 2275 1800 
Q 2175 1725 1800 1425 
L 1700 1500 
Q 2200 2000 2425 2275 
Q 2650 2550 2650 2750 
L 2775 2750 
L 2975 2450 
Q 2850 2375 2375 1925 
L 2475 1675 
L 3600 1800 
L 3775 2025 
L 4050 1750 
L 3900 1600 
L 3800 900 
L 4025 675 
L 2500 525 
z
M 2925 3425 
Q 2850 3250 2775 3100 
L 3550 3150 
Q 3800 3900 3750 4075 
L 2450 3975 
Q 2650 3675 2925 3425 
z
M 2500 1450 
L 2500 800 
L 3550 900 
L 3625 1575 
L 2500 1450 
z
M 4400 1800 
Q 4075 2100 3350 2600 
L 3425 2725 
Q 4025 2425 4400 2250 
Q 4425 2000 4400 1800 
z
" transform="scale(0.015625)"/>
      <path id="FangSong-54c1" d="M 2400 2900 
Q 2400 2650 2325 2650 
L 2100 3025 
Q 2200 3100 2187 3500 
Q 2175 3900 2150 4225 
Q 2125 4550 2050 4900 
L 2175 4950 
L 2325 4575 
L 4125 4750 
L 4300 4975 
L 4550 4750 
L 4400 4550 
L 4300 3300 
L 4450 3075 
L 2400 2900 
z
M 5050 2400 
L 5350 2200 
L 5200 1975 
L 5050 675 
L 5325 450 
L 3775 300 
Q 3850 -250 3725 -175 
L 3500 175 
Q 3575 350 3537 1237 
Q 3500 2125 3425 2400 
L 3500 2425 
L 3700 2050 
L 4900 2200 
L 5050 2400 
z
M 2725 2300 
L 2975 2050 
L 2825 1875 
L 2725 600 
L 2950 350 
L 1500 225 
Q 1525 -200 1450 -175 
L 1150 225 
Q 1275 250 1250 712 
Q 1225 1175 1212 1650 
Q 1200 2125 1125 2350 
L 1200 2400 
L 1450 1950 
L 2550 2075 
L 2725 2300 
z
M 4050 3275 
L 4150 4500 
L 2375 4350 
L 2400 3150 
L 4050 3275 
z
M 4825 650 
L 4950 1950 
L 3725 1825 
L 3775 550 
L 4825 650 
z
M 2475 575 
L 2600 1850 
L 1450 1725 
L 1500 475 
L 2475 575 
z
" transform="scale(0.015625)"/>
      <path id="FangSong-5206" d="M 3475 -175 
Q 3675 125 4050 2375 
L 2900 2275 
Q 2625 1150 2112 500 
Q 1600 -150 600 -600 
L 550 -500 
Q 1400 -75 1912 600 
Q 2425 1275 2625 2250 
Q 2025 2200 1900 2125 
L 1650 2425 
Q 2000 2400 4050 2625 
L 4225 2825 
L 4500 2500 
L 4300 2400 
Q 4125 1275 3950 500 
Q 3775 -275 3525 -650 
Q 3200 -225 2600 275 
L 2650 350 
L 3475 -175 
z
M 4925 2175 
Q 4925 2300 4525 2962 
Q 4125 3625 3700 4362 
Q 3275 5100 3100 5125 
L 3125 5225 
L 3450 5200 
Q 3450 5150 3475 5062 
Q 3500 4975 3850 4400 
Q 4200 3825 4562 3275 
Q 4925 2725 5150 2575 
Q 5375 2425 5975 2400 
L 6000 2275 
L 4925 2175 
z
M 500 1725 
Q 1000 2150 1425 2725 
Q 1850 3300 2137 3887 
Q 2425 4475 2325 4675 
L 2425 4700 
L 2675 4200 
Q 2625 4250 2300 3675 
Q 1950 3050 1587 2600 
Q 1225 2150 575 1625 
L 500 1725 
z
" transform="scale(0.015625)"/>
      <path id="FangSong-7c7b" d="M 2750 1450 
Q 2975 2050 2850 2200 
L 2925 2250 
L 3250 1875 
Q 3175 1900 3000 1475 
Q 5125 1600 5350 1675 
L 5675 1375 
Q 5250 1425 3700 1275 
Q 4100 750 4412 387 
Q 4725 25 4912 -87 
Q 5100 -200 5925 -225 
L 5925 -350 
Q 5050 -425 4675 -450 
Q 4700 -375 4400 50 
Q 4100 475 3525 1275 
L 2950 1250 
Q 2200 -75 525 -625 
L 500 -525 
Q 1950 75 2675 1225 
Q 1200 1125 1000 1075 
L 725 1350 
Q 1175 1325 2750 1450 
z
M 2950 2525 
Q 3100 2650 3075 3025 
L 3075 3300 
Q 2025 2250 900 1750 
L 825 1825 
Q 2000 2500 2725 3325 
Q 1400 3200 1250 3150 
L 950 3425 
Q 1375 3425 3075 3550 
L 3100 4525 
Q 3125 4950 2975 5150 
L 3000 5225 
L 3450 4950 
Q 3300 4875 3325 4500 
L 3300 3575 
Q 5150 3725 5300 3825 
L 5575 3525 
Q 5025 3525 3300 3350 
L 3300 2425 
Q 3275 2100 3175 2150 
L 2950 2525 
z
M 5225 2450 
Q 5200 2300 5200 2050 
Q 4700 2375 3550 3000 
L 3600 3075 
Q 4550 2700 5225 2450 
z
M 3750 3925 
Q 4125 4325 4362 4625 
Q 4600 4925 4525 5100 
L 4600 5125 
L 4825 4650 
Q 4750 4675 4500 4450 
Q 4250 4225 3825 3850 
L 3750 3925 
z
M 2450 4125 
Q 2400 3925 2325 3725 
Q 2150 4000 1550 4650 
L 1600 4725 
Q 2200 4325 2450 4125 
z
" transform="scale(0.015625)"/>
      <path id="FangSong-3a" d="M 1600 275 
Q 1600 125 1500 25 
Q 1400 -75 1250 -75 
Q 1100 -75 1000 25 
Q 900 125 900 275 
Q 900 425 1000 525 
Q 1100 625 1250 625 
Q 1400 625 1500 525 
Q 1600 425 1600 275 
z
M 1600 2025 
Q 1600 1875 1500 1775 
Q 1400 1675 1250 1675 
Q 1100 1675 1000 1775 
Q 900 1875 900 2025 
Q 900 2175 1000 2275 
Q 1100 2375 1250 2375 
Q 1400 2375 1500 2275 
Q 1600 2175 1600 2025 
z
" transform="scale(0.015625)"/>
      <path id="FangSong-31" d="M 1800 4350 
L 1800 550 
Q 1800 350 1925 250 
Q 2050 150 2275 150 
L 2525 150 
L 2525 0 
L 700 0 
L 700 150 
L 925 150 
Q 1175 150 1287 250 
Q 1400 350 1400 550 
L 1400 3575 
Q 1400 3675 1337 3737 
Q 1275 3800 1150 3800 
L 700 3800 
L 700 3950 
L 925 3950 
Q 1225 3950 1412 4050 
Q 1600 4150 1700 4350 
L 1800 4350 
z
" transform="scale(0.015625)"/>
      <path id="FangSong-33" d="M 2775 1150 
Q 2775 675 2425 312 
Q 2075 -50 1450 -50 
Q 1000 -50 675 200 
Q 350 450 350 775 
Q 350 925 450 1037 
Q 550 1150 650 1150 
Q 800 1150 862 1037 
Q 925 925 925 850 
Q 925 725 875 637 
Q 825 550 825 475 
Q 825 325 1012 225 
Q 1200 125 1425 125 
Q 1875 125 2100 387 
Q 2325 650 2325 1200 
Q 2325 1650 2087 1925 
Q 1850 2200 1200 2200 
L 1200 2375 
Q 1700 2375 1937 2612 
Q 2175 2850 2175 3275 
Q 2175 3625 1987 3887 
Q 1800 4150 1400 4150 
Q 1225 4150 1025 4062 
Q 825 3975 825 3775 
Q 825 3575 875 3525 
Q 925 3475 925 3400 
Q 925 3275 875 3200 
Q 825 3125 700 3125 
Q 600 3125 512 3200 
Q 425 3275 425 3475 
Q 425 3850 750 4087 
Q 1075 4325 1500 4325 
Q 2000 4325 2300 4012 
Q 2600 3700 2600 3350 
Q 2600 2975 2412 2712 
Q 2225 2450 1825 2325 
Q 2375 2125 2575 1800 
Q 2775 1475 2775 1150 
z
" transform="scale(0.015625)"/>
      <path id="FangSong-32" d="M 2300 3225 
Q 2300 3675 2100 3912 
Q 1900 4150 1500 4150 
Q 1200 4150 987 3987 
Q 775 3825 775 3575 
Q 775 3425 862 3325 
Q 950 3225 950 3125 
Q 950 3000 887 2937 
Q 825 2875 700 2875 
Q 550 2875 462 2962 
Q 375 3050 375 3250 
Q 375 3775 750 4050 
Q 1125 4325 1550 4325 
Q 2150 4325 2437 4025 
Q 2725 3725 2725 3275 
Q 2725 2975 2587 2675 
Q 2450 2375 2150 2100 
Q 1425 1400 1037 962 
Q 650 525 575 375 
L 2050 375 
Q 2275 375 2425 550 
Q 2575 725 2625 1075 
L 2775 1075 
L 2625 0 
L 300 0 
L 300 325 
Q 425 550 712 900 
Q 1000 1250 1475 1725 
Q 1900 2150 2100 2525 
Q 2300 2900 2300 3225 
z
" transform="scale(0.015625)"/>
      <path id="FangSong-30" d="M 1575 4125 
Q 1225 4125 987 3587 
Q 750 3050 750 2150 
Q 750 1200 987 675 
Q 1225 150 1575 150 
Q 1950 150 2162 675 
Q 2375 1200 2375 2150 
Q 2375 3050 2175 3587 
Q 1975 4125 1575 4125 
z
M 1575 -50 
Q 1025 -50 650 525 
Q 275 1100 275 2150 
Q 275 3125 637 3725 
Q 1000 4325 1575 4325 
Q 2125 4325 2487 3750 
Q 2850 3175 2850 2150 
Q 2850 1125 2487 537 
Q 2125 -50 1575 -50 
z
" transform="scale(0.015625)"/>
     </defs>
     <use xlink:href="#FangSong-5546"/>
     <use xlink:href="#FangSong-54c1" x="100"/>
     <use xlink:href="#FangSong-5206" x="200"/>
     <use xlink:href="#FangSong-7c7b" x="300"/>
     <use xlink:href="#FangSong-3a" x="400"/>
     <use xlink:href="#FangSong-31" x="450"/>
     <use xlink:href="#FangSong-33" x="500"/>
     <use xlink:href="#FangSong-32" x="550"/>
     <use xlink:href="#FangSong-33" x="600"/>
     <use xlink:href="#FangSong-30" x="650"/>
    </g>
   </g>
   <g id="text_2">
    <!-- 4.2% -->
    <g transform="translate(289.47848 168.949886)scale(0.1 -0.1)">
     <defs>
      <path id="FangSong-34" d="M 2275 475 
Q 2275 300 2375 225 
Q 2475 150 2650 150 
L 2875 150 
L 2875 0 
L 1225 0 
L 1225 150 
L 1500 150 
Q 1700 150 1787 225 
Q 1875 300 1875 475 
L 1875 1300 
L 200 1300 
L 200 1425 
L 2025 4325 
L 2275 4325 
L 2275 1450 
L 2950 1450 
L 2950 1300 
L 2275 1300 
L 2275 475 
z
M 1850 3700 
L 425 1450 
L 1875 1450 
L 1875 3700 
L 1850 3700 
z
" transform="scale(0.015625)"/>
      <path id="FangSong-2e" d="M 1125 275 
Q 1125 125 1025 25 
Q 925 -75 775 -75 
Q 625 -75 525 25 
Q 425 125 425 275 
Q 425 425 525 525 
Q 625 625 775 625 
Q 925 625 1025 525 
Q 1125 425 1125 275 
z
" transform="scale(0.015625)"/>
      <path id="FangSong-25" d="M 725 4150 
Q 575 4150 475 3950 
Q 375 3750 375 3200 
Q 375 2575 487 2387 
Q 600 2200 725 2200 
Q 900 2200 987 2425 
Q 1075 2650 1075 3200 
Q 1075 3650 1012 3900 
Q 950 4150 725 4150 
z
M 1400 3175 
Q 1400 2725 1250 2387 
Q 1100 2050 725 2050 
Q 425 2050 237 2350 
Q 50 2650 50 3175 
Q 50 3725 250 4025 
Q 450 4325 725 4325 
Q 1025 4325 1212 4012 
Q 1400 3700 1400 3175 
z
M 2700 1100 
Q 2700 1525 2625 1800 
Q 2550 2075 2350 2075 
Q 2200 2075 2100 1837 
Q 2000 1600 2000 1100 
Q 2000 475 2112 300 
Q 2225 125 2350 125 
Q 2525 125 2612 337 
Q 2700 550 2700 1100 
z
M 3025 1075 
Q 3025 575 2850 262 
Q 2675 -50 2350 -50 
Q 2075 -50 1875 262 
Q 1675 575 1675 1075 
Q 1675 1625 1875 1937 
Q 2075 2250 2350 2250 
Q 2650 2250 2837 1925 
Q 3025 1600 3025 1075 
z
M 2500 4250 
L 700 -50 
L 550 25 
L 2325 4325 
L 2500 4250 
z
" transform="scale(0.015625)"/>
     </defs>
     <use xlink:href="#FangSong-34"/>
     <use xlink:href="#FangSong-2e" x="50"/>
     <use xlink:href="#FangSong-32" x="100"/>
     <use xlink:href="#FangSong-25" x="150"/>
    </g>
   </g>
   <g id="text_3">
    <!-- 商品分类:5894 -->
    <g transform="translate(345.371319 135.468998)scale(0.1 -0.1)">
     <defs>
      <path id="FangSong-35" d="M 1700 2750 
Q 2175 2750 2475 2387 
Q 2775 2025 2775 1425 
Q 2775 750 2462 350 
Q 2150 -50 1500 -50 
Q 1050 -50 700 212 
Q 350 475 350 850 
Q 350 1000 437 1112 
Q 525 1225 675 1225 
Q 825 1225 875 1125 
Q 925 1025 925 950 
Q 925 800 850 712 
Q 775 625 775 525 
Q 775 325 1012 225 
Q 1250 125 1525 125 
Q 1925 125 2137 450 
Q 2350 775 2350 1375 
Q 2350 1875 2162 2187 
Q 1975 2500 1600 2500 
Q 1325 2500 1125 2400 
Q 925 2300 750 1975 
L 525 2000 
L 650 4275 
L 2700 4275 
L 2625 3900 
L 825 3900 
L 725 2250 
Q 975 2600 1212 2675 
Q 1450 2750 1700 2750 
z
" transform="scale(0.015625)"/>
      <path id="FangSong-38" d="M 600 1025 
Q 600 625 862 375 
Q 1125 125 1525 125 
Q 2000 125 2212 375 
Q 2425 625 2425 1000 
Q 2425 1325 2125 1625 
Q 1825 1925 1225 2175 
Q 925 1975 762 1675 
Q 600 1375 600 1025 
z
M 2800 1075 
Q 2800 600 2450 275 
Q 2100 -50 1525 -50 
Q 1000 -50 625 275 
Q 250 600 250 1025 
Q 250 1450 462 1750 
Q 675 2050 1075 2275 
Q 725 2450 537 2712 
Q 350 2975 350 3300 
Q 350 3725 675 4025 
Q 1000 4325 1575 4325 
Q 2100 4325 2425 4025 
Q 2750 3725 2750 3300 
Q 2750 3000 2562 2737 
Q 2375 2475 1975 2275 
Q 2400 2025 2600 1725 
Q 2800 1425 2800 1075 
z
M 2400 3275 
Q 2400 3625 2200 3887 
Q 2000 4150 1575 4150 
Q 1100 4150 900 3900 
Q 700 3650 700 3375 
Q 700 3100 987 2837 
Q 1275 2575 1800 2375 
Q 2100 2525 2250 2750 
Q 2400 2975 2400 3275 
z
" transform="scale(0.015625)"/>
      <path id="FangSong-39" d="M 675 2950 
Q 675 2400 887 2112 
Q 1100 1825 1425 1825 
Q 1800 1825 2075 2175 
Q 2350 2525 2350 2825 
Q 2350 3425 2150 3787 
Q 1950 4150 1500 4150 
Q 1075 4150 875 3812 
Q 675 3475 675 2950 
z
M 1350 1600 
Q 850 1600 550 1912 
Q 250 2225 250 2925 
Q 250 3525 575 3925 
Q 900 4325 1500 4325 
Q 2125 4325 2475 3825 
Q 2825 3325 2825 2375 
Q 2825 1325 2412 637 
Q 2000 -50 1275 -50 
Q 950 -50 712 100 
Q 475 250 475 500 
Q 475 600 537 700 
Q 600 800 750 800 
Q 900 800 950 687 
Q 1000 575 1000 425 
Q 1000 325 1025 262 
Q 1050 200 1075 175 
Q 1100 150 1162 137 
Q 1225 125 1300 125 
Q 1750 125 2025 625 
Q 2300 1125 2350 2300 
Q 2225 2000 1975 1800 
Q 1725 1600 1350 1600 
z
" transform="scale(0.015625)"/>
     </defs>
     <use xlink:href="#FangSong-5546"/>
     <use xlink:href="#FangSong-54c1" x="100"/>
     <use xlink:href="#FangSong-5206" x="200"/>
     <use xlink:href="#FangSong-7c7b" x="300"/>
     <use xlink:href="#FangSong-3a" x="400"/>
     <use xlink:href="#FangSong-35" x="450"/>
     <use xlink:href="#FangSong-38" x="500"/>
     <use xlink:href="#FangSong-39" x="550"/>
     <use xlink:href="#FangSong-34" x="600"/>
    </g>
   </g>
   <g id="text_4">
    <!-- 3.4% -->
    <g transform="translate(285.729811 154.270675)scale(0.1 -0.1)">
     <use xlink:href="#FangSong-33"/>
     <use xlink:href="#FangSong-2e" x="50"/>
     <use xlink:href="#FangSong-34" x="100"/>
     <use xlink:href="#FangSong-25" x="150"/>
    </g>
   </g>
   <g id="text_5">
    <!-- 商品分类:1863 -->
    <g transform="translate(334.071179 113.479131)scale(0.1 -0.1)">
     <defs>
      <path id="FangSong-36" d="M 750 1700 
Q 750 950 1012 537 
Q 1275 125 1650 125 
Q 2025 125 2225 400 
Q 2425 675 2425 1425 
Q 2425 1925 2212 2200 
Q 2000 2475 1700 2475 
Q 1425 2475 1187 2312 
Q 950 2150 750 1700 
z
M 1725 2725 
Q 2325 2725 2587 2325 
Q 2850 1925 2850 1425 
Q 2850 675 2487 312 
Q 2125 -50 1650 -50 
Q 975 -50 625 462 
Q 275 975 275 1950 
Q 275 3100 700 3712 
Q 1125 4325 1850 4325 
Q 2200 4325 2412 4125 
Q 2625 3925 2625 3775 
Q 2625 3625 2562 3550 
Q 2500 3475 2350 3475 
Q 2225 3475 2162 3537 
Q 2100 3600 2100 3725 
Q 2100 3775 2112 3825 
Q 2125 3875 2125 3925 
Q 2125 4025 2050 4087 
Q 1975 4150 1775 4150 
Q 1350 4150 1050 3762 
Q 750 3375 750 2075 
Q 900 2400 1162 2562 
Q 1425 2725 1725 2725 
z
" transform="scale(0.015625)"/>
     </defs>
     <use xlink:href="#FangSong-5546"/>
     <use xlink:href="#FangSong-54c1" x="100"/>
     <use xlink:href="#FangSong-5206" x="200"/>
     <use xlink:href="#FangSong-7c7b" x="300"/>
     <use xlink:href="#FangSong-3a" x="400"/>
     <use xlink:href="#FangSong-31" x="450"/>
     <use xlink:href="#FangSong-38" x="500"/>
     <use xlink:href="#FangSong-36" x="550"/>
     <use xlink:href="#FangSong-33" x="600"/>
    </g>
   </g>
   <g id="text_6">
    <!-- 3.3% -->
    <g transform="translate(279.566097 142.276202)scale(0.1 -0.1)">
     <use xlink:href="#FangSong-33"/>
     <use xlink:href="#FangSong-2e" x="50"/>
     <use xlink:href="#FangSong-33" x="100"/>
     <use xlink:href="#FangSong-25" x="150"/>
    </g>
   </g>
   <g id="text_7">
    <!-- 商品分类:6513 -->
    <g transform="translate(319.910547 95.864528)scale(0.1 -0.1)">
     <use xlink:href="#FangSong-5546"/>
     <use xlink:href="#FangSong-54c1" x="100"/>
     <use xlink:href="#FangSong-5206" x="200"/>
     <use xlink:href="#FangSong-7c7b" x="300"/>
     <use xlink:href="#FangSong-3a" x="400"/>
     <use xlink:href="#FangSong-36" x="450"/>
     <use xlink:href="#FangSong-35" x="500"/>
     <use xlink:href="#FangSong-31" x="550"/>
     <use xlink:href="#FangSong-33" x="600"/>
    </g>
   </g>
   <g id="text_8">
    <!-- 2.8% -->
    <g transform="translate(271.842117 132.668237)scale(0.1 -0.1)">
     <use xlink:href="#FangSong-32"/>
     <use xlink:href="#FangSong-2e" x="50"/>
     <use xlink:href="#FangSong-38" x="100"/>
     <use xlink:href="#FangSong-25" x="150"/>
    </g>
   </g>
   <g id="text_9">
    <!-- 商品分类:5399 -->
    <g transform="translate(304.402751 82.54572)scale(0.1 -0.1)">
     <use xlink:href="#FangSong-5546"/>
     <use xlink:href="#FangSong-54c1" x="100"/>
     <use xlink:href="#FangSong-5206" x="200"/>
     <use xlink:href="#FangSong-7c7b" x="300"/>
     <use xlink:href="#FangSong-3a" x="400"/>
     <use xlink:href="#FangSong-35" x="450"/>
     <use xlink:href="#FangSong-33" x="500"/>
     <use xlink:href="#FangSong-39" x="550"/>
     <use xlink:href="#FangSong-39" x="600"/>
    </g>
   </g>
   <g id="text_10">
    <!-- 2.7% -->
    <g transform="translate(263.383319 125.403433)scale(0.1 -0.1)">
     <defs>
      <path id="FangSong-37" d="M 2800 4100 
Q 2275 3250 1962 2437 
Q 1650 1625 1650 1025 
Q 1650 925 1662 737 
Q 1675 550 1675 300 
Q 1675 100 1612 25 
Q 1550 -50 1400 -50 
Q 1275 -50 1187 37 
Q 1100 125 1100 350 
Q 1100 825 1312 1525 
Q 1525 2225 2450 3900 
L 1200 3900 
Q 925 3900 762 3725 
Q 600 3550 525 3200 
L 375 3225 
L 550 4275 
L 2800 4275 
L 2800 4100 
z
" transform="scale(0.015625)"/>
     </defs>
     <use xlink:href="#FangSong-32"/>
     <use xlink:href="#FangSong-2e" x="50"/>
     <use xlink:href="#FangSong-37" x="100"/>
     <use xlink:href="#FangSong-25" x="150"/>
    </g>
   </g>
   <g id="text_11">
    <!-- 商品分类:其他 -->
    <g transform="translate(69.402176 235.694663)scale(0.1 -0.1)">
     <defs>
      <path id="FangSong-5176" d="M 2250 3550 
Q 1500 3475 1400 3425 
L 1100 3700 
Q 1375 3700 2250 3775 
L 2250 4325 
Q 2250 4800 2100 5050 
L 2175 5100 
L 2575 4775 
Q 2450 4775 2475 4300 
L 2475 3800 
L 4050 3950 
L 4075 4475 
Q 4100 4975 3950 5250 
L 4075 5275 
L 4425 4950 
Q 4300 4975 4300 4500 
L 4275 4000 
Q 5150 4100 5175 4175 
L 5500 3850 
Q 5150 3850 4275 3750 
L 4200 1425 
Q 5375 1550 5625 1625 
L 5950 1300 
Q 5375 1300 3200 1100 
Q 1025 900 825 850 
L 475 1125 
Q 1000 1100 2250 1225 
L 2250 3550 
z
M 2475 2950 
Q 3400 3075 3550 3125 
L 3800 2875 
Q 3500 2875 2475 2725 
L 2475 2150 
Q 3475 2250 3575 2300 
L 3825 2050 
Q 3575 2050 2475 1900 
L 2475 1250 
L 3950 1400 
L 4050 3725 
L 2475 3575 
L 2475 2950 
z
M 5400 -475 
Q 4775 50 3700 800 
L 3750 875 
Q 4750 350 5400 50 
Q 5450 -225 5400 -475 
z
M 800 -525 
Q 1625 -50 2062 350 
Q 2500 750 2450 925 
L 2575 925 
L 2775 500 
Q 2675 500 2125 100 
Q 1575 -300 850 -625 
L 800 -525 
z
" transform="scale(0.015625)"/>
      <path id="FangSong-4ed6" d="M 3050 600 
Q 3000 0 3725 -25 
L 4650 -25 
Q 5550 0 5562 187 
Q 5575 375 5575 1250 
L 5675 1250 
Q 5700 875 5750 525 
Q 5800 175 5950 -50 
Q 5775 -250 4575 -275 
L 3700 -275 
Q 2850 -250 2825 375 
L 2825 2325 
Q 2350 2100 2250 2025 
L 1975 2250 
Q 2200 2300 2825 2600 
L 2825 3300 
Q 2800 3675 2675 3975 
L 2750 4025 
L 3150 3600 
Q 3050 3475 3050 3175 
L 3050 2700 
L 3800 3025 
L 3800 4575 
Q 3800 5025 3700 5125 
L 3775 5200 
L 4175 4825 
Q 4025 4625 4025 4325 
L 4025 3150 
L 4925 3550 
L 5050 3800 
L 5375 3550 
L 5175 3325 
Q 4975 1525 4700 1050 
Q 4450 1375 4025 1825 
L 4025 975 
Q 4025 600 3950 700 
L 3700 1050 
Q 3800 1200 3800 1400 
L 3800 2775 
L 3050 2450 
L 3050 600 
z
M 1825 -400 
Q 1800 -725 1725 -575 
L 1450 -150 
Q 1625 -25 1600 425 
L 1625 3350 
Q 1225 2775 525 2150 
L 450 2250 
Q 1075 2850 1675 3837 
Q 2275 4825 2225 5100 
L 2300 5125 
L 2525 4625 
Q 2450 4675 2275 4375 
Q 2075 4050 1850 3650 
L 1825 -400 
z
M 4025 1975 
L 4625 1550 
Q 4800 1950 4925 3300 
L 4025 2875 
L 4025 1975 
z
" transform="scale(0.015625)"/>
     </defs>
     <use xlink:href="#FangSong-5546"/>
     <use xlink:href="#FangSong-54c1" x="100"/>
     <use xlink:href="#FangSong-5206" x="200"/>
     <use xlink:href="#FangSong-7c7b" x="300"/>
     <use xlink:href="#FangSong-3a" x="400"/>
     <use xlink:href="#FangSong-5176" x="450"/>
     <use xlink:href="#FangSong-4ed6" x="550"/>
    </g>
   </g>
   <g id="text_12">
    <!-- 83.5% -->
    <g transform="translate(168.155733 208.896606)scale(0.1 -0.1)">
     <use xlink:href="#FangSong-38"/>
     <use xlink:href="#FangSong-33" x="50"/>
     <use xlink:href="#FangSong-2e" x="100"/>
     <use xlink:href="#FangSong-35" x="150"/>
     <use xlink:href="#FangSong-25" x="200"/>
    </g>
   </g>
   <g id="text_13">
    <!-- 用户关注的商品分类饼图(前5) -->
    <g transform="translate(155.16 35.472)scale(0.12 -0.12)">
     <defs>
      <path id="FangSong-7528" d="M 3350 3400 
Q 4200 3500 4275 3575 
L 4500 3275 
Q 4250 3275 3350 3150 
L 3350 2225 
Q 4100 2300 4300 2375 
L 4525 2125 
Q 4175 2075 3350 1975 
L 3350 150 
Q 3350 -475 3275 -275 
L 3000 150 
Q 3150 275 3125 575 
L 3125 1950 
Q 2425 1875 2275 1800 
L 2000 2075 
Q 2275 2075 3125 2200 
L 3125 3125 
Q 2475 3050 2300 3000 
L 2050 3250 
Q 2300 3250 3125 3375 
L 3125 4400 
L 1850 4275 
Q 1875 2725 1625 1600 
Q 1375 475 500 -500 
L 425 -400 
Q 1150 525 1362 1500 
Q 1575 2475 1600 3562 
Q 1625 4650 1525 4975 
L 1625 5025 
L 1850 4500 
L 4775 4800 
L 4950 5050 
L 5250 4775 
L 5050 4550 
L 5050 225 
Q 5050 -325 4875 -650 
Q 4650 -300 4050 250 
L 4100 325 
L 4775 -75 
Q 4850 200 4825 475 
L 4825 4575 
L 3350 4425 
L 3350 3400 
z
" transform="scale(0.015625)"/>
      <path id="FangSong-6237" d="M 4800 4150 
L 5100 3850 
L 4925 3675 
L 4725 2400 
L 4925 2175 
L 2025 1925 
Q 1700 350 500 -675 
L 425 -600 
Q 1075 75 1412 825 
Q 1750 1575 1812 2237 
Q 1875 2900 1875 3375 
Q 1875 3850 1825 4175 
L 1925 4200 
L 2100 3675 
L 4650 3900 
L 4800 4150 
z
M 4475 2375 
L 4675 3650 
L 2125 3425 
Q 2125 2875 2050 2175 
L 4475 2375 
z
M 3425 4050 
Q 3175 4575 2775 5150 
L 2900 5200 
Q 3250 4875 3650 4475 
Q 3575 4275 3425 4050 
z
" transform="scale(0.015625)"/>
      <path id="FangSong-5173" d="M 3650 3475 
Q 4900 3625 4950 3675 
L 5300 3400 
Q 5050 3400 3350 3200 
Q 3300 2650 3225 2100 
Q 5200 2225 5375 2300 
L 5700 2050 
Q 5300 2050 3575 1900 
Q 4075 1025 4362 637 
Q 4650 250 4875 0 
Q 5100 -250 5900 -275 
L 5900 -400 
L 4750 -500 
Q 4800 -400 4412 200 
Q 4025 800 3400 1900 
L 3175 1900 
Q 2925 1075 2287 412 
Q 1650 -250 650 -625 
L 600 -525 
Q 1575 -75 2150 575 
Q 2725 1225 2900 1825 
Q 1250 1700 1075 1675 
L 750 1950 
Q 1075 1900 2975 2075 
Q 3075 2650 3100 3175 
Q 1800 3075 1725 3000 
L 1350 3325 
Q 1825 3275 3475 3475 
Q 3825 4050 4050 4525 
Q 4275 5000 4175 5175 
L 4250 5225 
L 4550 4725 
Q 4475 4775 4275 4475 
Q 4075 4150 3650 3475 
z
M 2750 3925 
Q 2650 3700 2550 3525 
Q 2250 4125 1775 4800 
L 1875 4850 
Q 2400 4300 2750 3925 
z
" transform="scale(0.015625)"/>
      <path id="FangSong-6ce8" d="M 5575 3550 
Q 5225 3550 4025 3375 
L 4025 2050 
Q 4925 2175 5075 2250 
L 5325 1950 
Q 5075 1950 4025 1800 
L 4000 125 
Q 5450 250 5650 325 
L 5975 25 
Q 5700 50 4150 -100 
Q 2600 -250 2450 -300 
L 2100 0 
Q 2475 -50 3775 100 
L 3800 1775 
Q 3050 1675 2925 1600 
L 2525 1900 
Q 3050 1900 3800 2025 
L 3800 3325 
Q 2925 3225 2825 3150 
L 2450 3450 
Q 2750 3425 3925 3600 
Q 5100 3775 5250 3850 
L 5575 3550 
z
M 2425 3075 
Q 1725 550 1425 -425 
Q 1300 -175 650 600 
L 700 675 
L 1325 200 
L 2325 3125 
L 2425 3075 
z
M 2100 3700 
Q 1800 4175 1325 4700 
L 1375 4775 
L 2200 4225 
Q 2175 3950 2100 3700 
z
M 3400 5200 
Q 3825 4850 4175 4500 
Q 4125 4275 4000 4075 
Q 3725 4575 3350 5150 
L 3400 5200 
z
M 1375 2075 
Q 1175 2375 600 3025 
L 650 3100 
Q 1050 2825 1450 2575 
Q 1425 2325 1375 2075 
z
" transform="scale(0.015625)"/>
      <path id="FangSong-7684" d="M 1175 400 
Q 1200 -350 1100 -275 
L 825 200 
Q 950 300 950 825 
L 925 3075 
Q 925 3450 800 3750 
L 900 3800 
L 1150 3400 
L 1400 3425 
Q 1600 4025 1700 4450 
Q 1800 4875 1675 5075 
L 1750 5125 
L 2150 4675 
Q 2050 4700 1912 4362 
Q 1775 4025 1550 3450 
L 2500 3575 
L 2625 3875 
L 2975 3625 
L 2775 3325 
Q 2750 2250 2725 1475 
Q 2700 700 2650 325 
Q 2600 -50 2550 -37 
Q 2500 -25 2350 500 
L 1175 400 
z
M 1175 650 
Q 1950 750 2100 825 
L 2400 525 
Q 2475 800 2487 1537 
Q 2500 2275 2525 3325 
L 1150 3150 
L 1150 2100 
Q 1925 2175 2175 2250 
L 2375 1975 
Q 2025 1950 1175 1825 
L 1175 650 
z
M 5275 3625 
L 5450 3925 
L 5775 3650 
L 5575 3450 
Q 5450 2125 5287 1075 
Q 5125 25 4850 -550 
Q 4525 -175 3850 400 
L 3900 475 
L 4775 -50 
Q 4900 225 5062 1225 
Q 5225 2225 5300 3400 
L 3575 3200 
Q 3300 2575 2875 1925 
L 2775 2000 
Q 3225 2875 3462 3525 
Q 3700 4175 3800 4612 
Q 3900 5050 3800 5150 
L 3875 5200 
L 4250 4775 
Q 4150 4800 4037 4462 
Q 3925 4125 3650 3425 
L 5275 3625 
z
M 4525 1775 
Q 4475 1575 4375 1325 
Q 4025 1925 3550 2550 
L 3625 2625 
Q 4100 2200 4525 1775 
z
" transform="scale(0.015625)"/>
      <path id="FangSong-997c" d="M 3500 3275 
Q 3175 3250 3075 3225 
L 2825 3450 
Q 3225 3475 4300 3600 
Q 4575 4300 4675 4662 
Q 4775 5025 4650 5150 
L 4725 5200 
L 5100 4775 
Q 5000 4825 4825 4412 
Q 4650 4000 4475 3625 
Q 5275 3725 5400 3775 
L 5675 3525 
Q 5150 3475 4775 3425 
L 4775 2175 
Q 5650 2275 5725 2325 
L 5975 2075 
Q 5625 2050 4775 1925 
L 4775 -200 
Q 4800 -650 4700 -600 
L 4450 -300 
Q 4575 -150 4550 250 
L 4550 1900 
L 3700 1825 
Q 3600 250 2275 -575 
L 2200 -500 
Q 3350 375 3450 1800 
Q 2850 1725 2725 1700 
L 2425 1950 
Q 2850 1950 3475 2050 
Q 3500 2700 3500 3275 
z
M 1550 3425 
Q 1100 2675 500 2000 
L 425 2075 
Q 800 2550 1062 2987 
Q 1325 3425 1637 4200 
Q 1950 4975 1850 5150 
L 1925 5200 
L 2225 4750 
Q 2150 4800 2012 4487 
Q 1875 4175 1625 3650 
L 2450 3750 
L 2600 3975 
L 2900 3700 
Q 2750 3600 2625 3400 
Q 2500 3200 2175 2675 
L 2100 2725 
L 2425 3525 
L 1550 3425 
z
M 3750 3300 
Q 3750 2700 3725 2075 
L 4550 2150 
L 4550 3400 
L 3750 3300 
z
M 2700 1075 
Q 1725 25 1650 -150 
L 1425 150 
Q 1525 200 1550 425 
L 1575 2025 
Q 1600 2450 1450 2700 
L 1500 2750 
L 1925 2350 
Q 1775 2250 1800 1875 
L 1775 400 
L 2625 1150 
L 2700 1075 
z
M 3700 3700 
Q 3400 4400 3075 4875 
L 3150 4950 
Q 3625 4425 3875 4075 
Q 3800 3900 3700 3700 
z
" transform="scale(0.015625)"/>
      <path id="FangSong-56fe" d="M 5375 5050 
L 5675 4775 
L 5450 4550 
Q 5300 25 5262 -275 
Q 5225 -575 5137 -562 
Q 5050 -550 4950 -50 
L 1425 -200 
Q 1450 -675 1350 -675 
L 1075 -200 
Q 1150 -25 1150 175 
L 1125 4250 
Q 1125 4725 1050 5050 
L 1150 5100 
L 1400 4600 
L 5175 4850 
L 5375 5050 
z
M 1400 0 
Q 4100 150 4650 225 
L 4975 25 
Q 5050 200 5075 1825 
L 4175 1675 
Q 4250 1725 3225 2575 
Q 2475 1875 1475 1450 
L 1425 1550 
Q 2275 2000 3075 2725 
Q 2900 2850 2525 3225 
Q 2325 2925 1850 2450 
L 1750 2525 
Q 2500 3400 2950 4450 
L 1375 4350 
L 1400 0 
z
M 3925 3950 
L 4200 3675 
L 4000 3550 
Q 3675 3000 3375 2725 
Q 4000 2175 4250 2050 
Q 4500 1925 5100 1950 
L 5225 4600 
L 3050 4450 
L 3250 4175 
Q 3150 4150 3062 4012 
Q 2975 3875 2800 3625 
L 3750 3775 
L 3925 3950 
z
M 3625 775 
Q 3650 500 3625 250 
Q 3200 700 2500 1275 
L 2600 1375 
Q 3250 975 3625 775 
z
M 2800 3275 
Q 2800 3200 2925 3100 
Q 3050 3000 3200 2850 
Q 3450 3125 3700 3550 
Q 3050 3400 2875 3350 
L 2750 3525 
L 2600 3275 
L 2800 3275 
z
M 2775 2100 
Q 3300 1800 3625 1675 
Q 3650 1425 3625 1225 
Q 3300 1500 2700 1975 
L 2775 2100 
z
" transform="scale(0.015625)"/>
      <path id="FangSong-28" d="M 2875 4925 
Q 2300 4325 2012 3637 
Q 1725 2950 1725 2200 
Q 1725 1425 2012 750 
Q 2300 75 2875 -525 
L 2750 -650 
Q 2050 -25 1700 687 
Q 1350 1400 1350 2200 
Q 1350 2975 1700 3687 
Q 2050 4400 2750 5050 
L 2875 4925 
z
" transform="scale(0.015625)"/>
      <path id="FangSong-524d" d="M 2800 -625 
Q 2550 -300 1975 200 
L 2025 275 
L 2700 -100 
Q 2775 125 2775 350 
L 2775 2725 
L 1600 2575 
L 1600 1950 
Q 2425 2025 2525 2100 
L 2750 1850 
Q 2375 1825 1600 1725 
L 1600 1175 
Q 2300 1225 2500 1325 
L 2725 1025 
Q 2350 1025 1600 925 
L 1600 -450 
Q 1600 -725 1500 -625 
L 1250 -200 
Q 1400 -100 1375 250 
L 1375 2300 
Q 1375 2775 1275 3150 
L 1400 3150 
L 1575 2800 
L 2725 2950 
L 2875 3250 
L 3200 2975 
L 3000 2750 
L 3000 200 
Q 3000 -300 2800 -625 
z
M 3600 3900 
Q 3750 4150 3975 4612 
Q 4200 5075 4100 5225 
L 4175 5250 
L 4475 4825 
Q 4425 4875 4175 4525 
Q 3925 4175 3775 3925 
Q 5500 4050 5600 4125 
L 5925 3850 
Q 5300 3850 3200 3662 
Q 1100 3475 825 3475 
L 500 3750 
Q 1075 3675 3600 3900 
z
M 4675 -625 
Q 4375 -250 3725 300 
L 3775 375 
L 4600 -125 
Q 4675 175 4675 450 
L 4675 2725 
Q 4700 3125 4550 3325 
L 4625 3400 
L 5025 3050 
Q 4875 3000 4900 2625 
L 4900 225 
Q 4900 -275 4675 -625 
z
M 3925 900 
Q 3925 625 3850 675 
L 3600 1025 
Q 3725 1150 3700 1350 
L 3700 2300 
Q 3725 2750 3600 2875 
L 3675 2925 
L 4050 2625 
Q 3900 2525 3925 2250 
L 3925 900 
z
M 1900 4950 
Q 2325 4575 2700 4225 
Q 2600 4025 2500 3850 
Q 2225 4325 1825 4875 
L 1900 4950 
z
" transform="scale(0.015625)"/>
      <path id="FangSong-29" d="M 250 4925 
L 375 5050 
Q 1075 4400 1425 3687 
Q 1775 2975 1775 2200 
Q 1775 1400 1425 687 
Q 1075 -25 375 -650 
L 250 -525 
Q 825 75 1112 750 
Q 1400 1425 1400 2200 
Q 1400 2950 1112 3637 
Q 825 4325 250 4925 
z
" transform="scale(0.015625)"/>
     </defs>
     <use xlink:href="#FangSong-7528"/>
     <use xlink:href="#FangSong-6237" x="100"/>
     <use xlink:href="#FangSong-5173" x="200"/>
     <use xlink:href="#FangSong-6ce8" x="300"/>
     <use xlink:href="#FangSong-7684" x="400"/>
     <use xlink:href="#FangSong-5546" x="500"/>
     <use xlink:href="#FangSong-54c1" x="600"/>
     <use xlink:href="#FangSong-5206" x="700"/>
     <use xlink:href="#FangSong-7c7b" x="800"/>
     <use xlink:href="#FangSong-997c" x="900"/>
     <use xlink:href="#FangSong-56fe" x="1000"/>
     <use xlink:href="#FangSong-28" x="1100"/>
     <use xlink:href="#FangSong-524d" x="1150"/>
     <use xlink:href="#FangSong-35" x="1250"/>
     <use xlink:href="#FangSong-29" x="1300"/>
    </g>
   </g>
  </g>
 </g>
</svg>
