<?xml version="1.0" encoding="utf-8" standalone="no"?>
<!DOCTYPE svg PUBLIC "-//W3C//DTD SVG 1.1//EN"
  "http://www.w3.org/Graphics/SVG/1.1/DTD/svg11.dtd">
<svg xmlns:xlink="http://www.w3.org/1999/xlink" width="460.8pt" height="345.6pt" viewBox="0 0 460.8 345.6" xmlns="http://www.w3.org/2000/svg" version="1.1">
 <metadata>
  <rdf:RDF xmlns:dc="http://purl.org/dc/elements/1.1/" xmlns:cc="http://creativecommons.org/ns#" xmlns:rdf="http://www.w3.org/1999/02/22-rdf-syntax-ns#">
   <cc:Work>
    <dc:type rdf:resource="http://purl.org/dc/dcmitype/StillImage"/>
    <dc:date>2022-05-30T15:26:26.841469</dc:date>
    <dc:format>image/svg+xml</dc:format>
    <dc:creator>
     <cc:Agent>
      <dc:title>Matplotlib v3.5.1, https://matplotlib.org/</dc:title>
     </cc:Agent>
    </dc:creator>
   </cc:Work>
  </rdf:RDF>
 </metadata>
 <defs>
  <style type="text/css">*{stroke-linejoin: round; stroke-linecap: butt}</style>
 </defs>
 <g id="figure_1">
  <g id="patch_1">
   <path d="M 0 345.6 
L 460.8 345.6 
L 460.8 0 
L 0 0 
z
" style="fill: #ffffff"/>
  </g>
  <g id="axes_1">
   <g id="patch_2">
    <path d="M 57.6 307.584 
L 414.72 307.584 
L 414.72 41.472 
L 57.6 41.472 
z
" style="fill: #ffffff"/>
   </g>
   <g id="matplotlib.axis_1">
    <g id="xtick_1">
     <g id="line2d_1">
      <defs>
       <path id="mbbbec35332" d="M 0 0 
L 0 3.5 
" style="stroke: #000000; stroke-width: 0.8"/>
      </defs>
      <g>
       <use xlink:href="#mbbbec35332" x="73.832727" y="307.584" style="stroke: #000000; stroke-width: 0.8"/>
      </g>
     </g>
     <g id="text_1">
      <!-- 2014-11-20 -->
      <g transform="translate(62.582727 317.730484)scale(0.045 -0.045)">
       <defs>
        <path id="FangSong-32" d="M 2300 3225 
Q 2300 3675 2100 3912 
Q 1900 4150 1500 4150 
Q 1200 4150 987 3987 
Q 775 3825 775 3575 
Q 775 3425 862 3325 
Q 950 3225 950 3125 
Q 950 3000 887 2937 
Q 825 2875 700 2875 
Q 550 2875 462 2962 
Q 375 3050 375 3250 
Q 375 3775 750 4050 
Q 1125 4325 1550 4325 
Q 2150 4325 2437 4025 
Q 2725 3725 2725 3275 
Q 2725 2975 2587 2675 
Q 2450 2375 2150 2100 
Q 1425 1400 1037 962 
Q 650 525 575 375 
L 2050 375 
Q 2275 375 2425 550 
Q 2575 725 2625 1075 
L 2775 1075 
L 2625 0 
L 300 0 
L 300 325 
Q 425 550 712 900 
Q 1000 1250 1475 1725 
Q 1900 2150 2100 2525 
Q 2300 2900 2300 3225 
z
" transform="scale(0.015625)"/>
        <path id="FangSong-30" d="M 1575 4125 
Q 1225 4125 987 3587 
Q 750 3050 750 2150 
Q 750 1200 987 675 
Q 1225 150 1575 150 
Q 1950 150 2162 675 
Q 2375 1200 2375 2150 
Q 2375 3050 2175 3587 
Q 1975 4125 1575 4125 
z
M 1575 -50 
Q 1025 -50 650 525 
Q 275 1100 275 2150 
Q 275 3125 637 3725 
Q 1000 4325 1575 4325 
Q 2125 4325 2487 3750 
Q 2850 3175 2850 2150 
Q 2850 1125 2487 537 
Q 2125 -50 1575 -50 
z
" transform="scale(0.015625)"/>
        <path id="FangSong-31" d="M 1800 4350 
L 1800 550 
Q 1800 350 1925 250 
Q 2050 150 2275 150 
L 2525 150 
L 2525 0 
L 700 0 
L 700 150 
L 925 150 
Q 1175 150 1287 250 
Q 1400 350 1400 550 
L 1400 3575 
Q 1400 3675 1337 3737 
Q 1275 3800 1150 3800 
L 700 3800 
L 700 3950 
L 925 3950 
Q 1225 3950 1412 4050 
Q 1600 4150 1700 4350 
L 1800 4350 
z
" transform="scale(0.015625)"/>
        <path id="FangSong-34" d="M 2275 475 
Q 2275 300 2375 225 
Q 2475 150 2650 150 
L 2875 150 
L 2875 0 
L 1225 0 
L 1225 150 
L 1500 150 
Q 1700 150 1787 225 
Q 1875 300 1875 475 
L 1875 1300 
L 200 1300 
L 200 1425 
L 2025 4325 
L 2275 4325 
L 2275 1450 
L 2950 1450 
L 2950 1300 
L 2275 1300 
L 2275 475 
z
M 1850 3700 
L 425 1450 
L 1875 1450 
L 1875 3700 
L 1850 3700 
z
" transform="scale(0.015625)"/>
        <path id="FangSong-2d" d="M 175 2125 
L 175 2350 
L 2950 2350 
L 2950 2125 
L 175 2125 
z
" transform="scale(0.015625)"/>
       </defs>
       <use xlink:href="#FangSong-32"/>
       <use xlink:href="#FangSong-30" x="50"/>
       <use xlink:href="#FangSong-31" x="100"/>
       <use xlink:href="#FangSong-34" x="150"/>
       <use xlink:href="#FangSong-2d" x="200"/>
       <use xlink:href="#FangSong-31" x="250"/>
       <use xlink:href="#FangSong-31" x="300"/>
       <use xlink:href="#FangSong-2d" x="350"/>
       <use xlink:href="#FangSong-32" x="400"/>
       <use xlink:href="#FangSong-30" x="450"/>
      </g>
     </g>
    </g>
    <g id="xtick_2">
     <g id="line2d_2">
      <g>
       <use xlink:href="#mbbbec35332" x="97.022338" y="307.584" style="stroke: #000000; stroke-width: 0.8"/>
      </g>
     </g>
     <g id="text_2">
      <!-- 2014-11-21 -->
      <g transform="translate(85.772338 317.730484)scale(0.045 -0.045)">
       <use xlink:href="#FangSong-32"/>
       <use xlink:href="#FangSong-30" x="50"/>
       <use xlink:href="#FangSong-31" x="100"/>
       <use xlink:href="#FangSong-34" x="150"/>
       <use xlink:href="#FangSong-2d" x="200"/>
       <use xlink:href="#FangSong-31" x="250"/>
       <use xlink:href="#FangSong-31" x="300"/>
       <use xlink:href="#FangSong-2d" x="350"/>
       <use xlink:href="#FangSong-32" x="400"/>
       <use xlink:href="#FangSong-31" x="450"/>
      </g>
     </g>
    </g>
    <g id="xtick_3">
     <g id="line2d_3">
      <g>
       <use xlink:href="#mbbbec35332" x="120.211948" y="307.584" style="stroke: #000000; stroke-width: 0.8"/>
      </g>
     </g>
     <g id="text_3">
      <!-- 2014-11-22 -->
      <g transform="translate(108.961948 317.730484)scale(0.045 -0.045)">
       <use xlink:href="#FangSong-32"/>
       <use xlink:href="#FangSong-30" x="50"/>
       <use xlink:href="#FangSong-31" x="100"/>
       <use xlink:href="#FangSong-34" x="150"/>
       <use xlink:href="#FangSong-2d" x="200"/>
       <use xlink:href="#FangSong-31" x="250"/>
       <use xlink:href="#FangSong-31" x="300"/>
       <use xlink:href="#FangSong-2d" x="350"/>
       <use xlink:href="#FangSong-32" x="400"/>
       <use xlink:href="#FangSong-32" x="450"/>
      </g>
     </g>
    </g>
    <g id="xtick_4">
     <g id="line2d_4">
      <g>
       <use xlink:href="#mbbbec35332" x="143.401558" y="307.584" style="stroke: #000000; stroke-width: 0.8"/>
      </g>
     </g>
     <g id="text_4">
      <!-- 2014-11-24 -->
      <g transform="translate(132.151558 317.730484)scale(0.045 -0.045)">
       <use xlink:href="#FangSong-32"/>
       <use xlink:href="#FangSong-30" x="50"/>
       <use xlink:href="#FangSong-31" x="100"/>
       <use xlink:href="#FangSong-34" x="150"/>
       <use xlink:href="#FangSong-2d" x="200"/>
       <use xlink:href="#FangSong-31" x="250"/>
       <use xlink:href="#FangSong-31" x="300"/>
       <use xlink:href="#FangSong-2d" x="350"/>
       <use xlink:href="#FangSong-32" x="400"/>
       <use xlink:href="#FangSong-34" x="450"/>
      </g>
     </g>
    </g>
    <g id="xtick_5">
     <g id="line2d_5">
      <g>
       <use xlink:href="#mbbbec35332" x="166.591169" y="307.584" style="stroke: #000000; stroke-width: 0.8"/>
      </g>
     </g>
     <g id="text_5">
      <!-- 2014-11-28 -->
      <g transform="translate(155.341169 317.730484)scale(0.045 -0.045)">
       <defs>
        <path id="FangSong-38" d="M 600 1025 
Q 600 625 862 375 
Q 1125 125 1525 125 
Q 2000 125 2212 375 
Q 2425 625 2425 1000 
Q 2425 1325 2125 1625 
Q 1825 1925 1225 2175 
Q 925 1975 762 1675 
Q 600 1375 600 1025 
z
M 2800 1075 
Q 2800 600 2450 275 
Q 2100 -50 1525 -50 
Q 1000 -50 625 275 
Q 250 600 250 1025 
Q 250 1450 462 1750 
Q 675 2050 1075 2275 
Q 725 2450 537 2712 
Q 350 2975 350 3300 
Q 350 3725 675 4025 
Q 1000 4325 1575 4325 
Q 2100 4325 2425 4025 
Q 2750 3725 2750 3300 
Q 2750 3000 2562 2737 
Q 2375 2475 1975 2275 
Q 2400 2025 2600 1725 
Q 2800 1425 2800 1075 
z
M 2400 3275 
Q 2400 3625 2200 3887 
Q 2000 4150 1575 4150 
Q 1100 4150 900 3900 
Q 700 3650 700 3375 
Q 700 3100 987 2837 
Q 1275 2575 1800 2375 
Q 2100 2525 2250 2750 
Q 2400 2975 2400 3275 
z
" transform="scale(0.015625)"/>
       </defs>
       <use xlink:href="#FangSong-32"/>
       <use xlink:href="#FangSong-30" x="50"/>
       <use xlink:href="#FangSong-31" x="100"/>
       <use xlink:href="#FangSong-34" x="150"/>
       <use xlink:href="#FangSong-2d" x="200"/>
       <use xlink:href="#FangSong-31" x="250"/>
       <use xlink:href="#FangSong-31" x="300"/>
       <use xlink:href="#FangSong-2d" x="350"/>
       <use xlink:href="#FangSong-32" x="400"/>
       <use xlink:href="#FangSong-38" x="450"/>
      </g>
     </g>
    </g>
    <g id="xtick_6">
     <g id="line2d_6">
      <g>
       <use xlink:href="#mbbbec35332" x="189.780779" y="307.584" style="stroke: #000000; stroke-width: 0.8"/>
      </g>
     </g>
     <g id="text_6">
      <!-- 2014-12-02 -->
      <g transform="translate(178.530779 317.730484)scale(0.045 -0.045)">
       <use xlink:href="#FangSong-32"/>
       <use xlink:href="#FangSong-30" x="50"/>
       <use xlink:href="#FangSong-31" x="100"/>
       <use xlink:href="#FangSong-34" x="150"/>
       <use xlink:href="#FangSong-2d" x="200"/>
       <use xlink:href="#FangSong-31" x="250"/>
       <use xlink:href="#FangSong-32" x="300"/>
       <use xlink:href="#FangSong-2d" x="350"/>
       <use xlink:href="#FangSong-30" x="400"/>
       <use xlink:href="#FangSong-32" x="450"/>
      </g>
     </g>
    </g>
    <g id="xtick_7">
     <g id="line2d_7">
      <g>
       <use xlink:href="#mbbbec35332" x="212.97039" y="307.584" style="stroke: #000000; stroke-width: 0.8"/>
      </g>
     </g>
     <g id="text_7">
      <!-- 2014-12-03 -->
      <g transform="translate(201.72039 317.730484)scale(0.045 -0.045)">
       <defs>
        <path id="FangSong-33" d="M 2775 1150 
Q 2775 675 2425 312 
Q 2075 -50 1450 -50 
Q 1000 -50 675 200 
Q 350 450 350 775 
Q 350 925 450 1037 
Q 550 1150 650 1150 
Q 800 1150 862 1037 
Q 925 925 925 850 
Q 925 725 875 637 
Q 825 550 825 475 
Q 825 325 1012 225 
Q 1200 125 1425 125 
Q 1875 125 2100 387 
Q 2325 650 2325 1200 
Q 2325 1650 2087 1925 
Q 1850 2200 1200 2200 
L 1200 2375 
Q 1700 2375 1937 2612 
Q 2175 2850 2175 3275 
Q 2175 3625 1987 3887 
Q 1800 4150 1400 4150 
Q 1225 4150 1025 4062 
Q 825 3975 825 3775 
Q 825 3575 875 3525 
Q 925 3475 925 3400 
Q 925 3275 875 3200 
Q 825 3125 700 3125 
Q 600 3125 512 3200 
Q 425 3275 425 3475 
Q 425 3850 750 4087 
Q 1075 4325 1500 4325 
Q 2000 4325 2300 4012 
Q 2600 3700 2600 3350 
Q 2600 2975 2412 2712 
Q 2225 2450 1825 2325 
Q 2375 2125 2575 1800 
Q 2775 1475 2775 1150 
z
" transform="scale(0.015625)"/>
       </defs>
       <use xlink:href="#FangSong-32"/>
       <use xlink:href="#FangSong-30" x="50"/>
       <use xlink:href="#FangSong-31" x="100"/>
       <use xlink:href="#FangSong-34" x="150"/>
       <use xlink:href="#FangSong-2d" x="200"/>
       <use xlink:href="#FangSong-31" x="250"/>
       <use xlink:href="#FangSong-32" x="300"/>
       <use xlink:href="#FangSong-2d" x="350"/>
       <use xlink:href="#FangSong-30" x="400"/>
       <use xlink:href="#FangSong-33" x="450"/>
      </g>
     </g>
    </g>
    <g id="xtick_8">
     <g id="line2d_8">
      <g>
       <use xlink:href="#mbbbec35332" x="236.16" y="307.584" style="stroke: #000000; stroke-width: 0.8"/>
      </g>
     </g>
     <g id="text_8">
      <!-- 2014-12-07 -->
      <g transform="translate(224.91 317.730484)scale(0.045 -0.045)">
       <defs>
        <path id="FangSong-37" d="M 2800 4100 
Q 2275 3250 1962 2437 
Q 1650 1625 1650 1025 
Q 1650 925 1662 737 
Q 1675 550 1675 300 
Q 1675 100 1612 25 
Q 1550 -50 1400 -50 
Q 1275 -50 1187 37 
Q 1100 125 1100 350 
Q 1100 825 1312 1525 
Q 1525 2225 2450 3900 
L 1200 3900 
Q 925 3900 762 3725 
Q 600 3550 525 3200 
L 375 3225 
L 550 4275 
L 2800 4275 
L 2800 4100 
z
" transform="scale(0.015625)"/>
       </defs>
       <use xlink:href="#FangSong-32"/>
       <use xlink:href="#FangSong-30" x="50"/>
       <use xlink:href="#FangSong-31" x="100"/>
       <use xlink:href="#FangSong-34" x="150"/>
       <use xlink:href="#FangSong-2d" x="200"/>
       <use xlink:href="#FangSong-31" x="250"/>
       <use xlink:href="#FangSong-32" x="300"/>
       <use xlink:href="#FangSong-2d" x="350"/>
       <use xlink:href="#FangSong-30" x="400"/>
       <use xlink:href="#FangSong-37" x="450"/>
      </g>
     </g>
    </g>
    <g id="xtick_9">
     <g id="line2d_9">
      <g>
       <use xlink:href="#mbbbec35332" x="259.34961" y="307.584" style="stroke: #000000; stroke-width: 0.8"/>
      </g>
     </g>
     <g id="text_9">
      <!-- 2014-12-08 -->
      <g transform="translate(248.09961 317.730484)scale(0.045 -0.045)">
       <use xlink:href="#FangSong-32"/>
       <use xlink:href="#FangSong-30" x="50"/>
       <use xlink:href="#FangSong-31" x="100"/>
       <use xlink:href="#FangSong-34" x="150"/>
       <use xlink:href="#FangSong-2d" x="200"/>
       <use xlink:href="#FangSong-31" x="250"/>
       <use xlink:href="#FangSong-32" x="300"/>
       <use xlink:href="#FangSong-2d" x="350"/>
       <use xlink:href="#FangSong-30" x="400"/>
       <use xlink:href="#FangSong-38" x="450"/>
      </g>
     </g>
    </g>
    <g id="xtick_10">
     <g id="line2d_10">
      <g>
       <use xlink:href="#mbbbec35332" x="282.539221" y="307.584" style="stroke: #000000; stroke-width: 0.8"/>
      </g>
     </g>
     <g id="text_10">
      <!-- 2014-12-10 -->
      <g transform="translate(271.289221 317.730484)scale(0.045 -0.045)">
       <use xlink:href="#FangSong-32"/>
       <use xlink:href="#FangSong-30" x="50"/>
       <use xlink:href="#FangSong-31" x="100"/>
       <use xlink:href="#FangSong-34" x="150"/>
       <use xlink:href="#FangSong-2d" x="200"/>
       <use xlink:href="#FangSong-31" x="250"/>
       <use xlink:href="#FangSong-32" x="300"/>
       <use xlink:href="#FangSong-2d" x="350"/>
       <use xlink:href="#FangSong-31" x="400"/>
       <use xlink:href="#FangSong-30" x="450"/>
      </g>
     </g>
    </g>
    <g id="xtick_11">
     <g id="line2d_11">
      <g>
       <use xlink:href="#mbbbec35332" x="305.728831" y="307.584" style="stroke: #000000; stroke-width: 0.8"/>
      </g>
     </g>
     <g id="text_11">
      <!-- 2014-12-12 -->
      <g transform="translate(294.478831 317.730484)scale(0.045 -0.045)">
       <use xlink:href="#FangSong-32"/>
       <use xlink:href="#FangSong-30" x="50"/>
       <use xlink:href="#FangSong-31" x="100"/>
       <use xlink:href="#FangSong-34" x="150"/>
       <use xlink:href="#FangSong-2d" x="200"/>
       <use xlink:href="#FangSong-31" x="250"/>
       <use xlink:href="#FangSong-32" x="300"/>
       <use xlink:href="#FangSong-2d" x="350"/>
       <use xlink:href="#FangSong-31" x="400"/>
       <use xlink:href="#FangSong-32" x="450"/>
      </g>
     </g>
    </g>
    <g id="xtick_12">
     <g id="line2d_12">
      <g>
       <use xlink:href="#mbbbec35332" x="328.918442" y="307.584" style="stroke: #000000; stroke-width: 0.8"/>
      </g>
     </g>
     <g id="text_12">
      <!-- 2014-12-13 -->
      <g transform="translate(317.668442 317.730484)scale(0.045 -0.045)">
       <use xlink:href="#FangSong-32"/>
       <use xlink:href="#FangSong-30" x="50"/>
       <use xlink:href="#FangSong-31" x="100"/>
       <use xlink:href="#FangSong-34" x="150"/>
       <use xlink:href="#FangSong-2d" x="200"/>
       <use xlink:href="#FangSong-31" x="250"/>
       <use xlink:href="#FangSong-32" x="300"/>
       <use xlink:href="#FangSong-2d" x="350"/>
       <use xlink:href="#FangSong-31" x="400"/>
       <use xlink:href="#FangSong-33" x="450"/>
      </g>
     </g>
    </g>
    <g id="xtick_13">
     <g id="line2d_13">
      <g>
       <use xlink:href="#mbbbec35332" x="352.108052" y="307.584" style="stroke: #000000; stroke-width: 0.8"/>
      </g>
     </g>
     <g id="text_13">
      <!-- 2014-12-14 -->
      <g transform="translate(340.858052 317.730484)scale(0.045 -0.045)">
       <use xlink:href="#FangSong-32"/>
       <use xlink:href="#FangSong-30" x="50"/>
       <use xlink:href="#FangSong-31" x="100"/>
       <use xlink:href="#FangSong-34" x="150"/>
       <use xlink:href="#FangSong-2d" x="200"/>
       <use xlink:href="#FangSong-31" x="250"/>
       <use xlink:href="#FangSong-32" x="300"/>
       <use xlink:href="#FangSong-2d" x="350"/>
       <use xlink:href="#FangSong-31" x="400"/>
       <use xlink:href="#FangSong-34" x="450"/>
      </g>
     </g>
    </g>
    <g id="xtick_14">
     <g id="line2d_14">
      <g>
       <use xlink:href="#mbbbec35332" x="375.297662" y="307.584" style="stroke: #000000; stroke-width: 0.8"/>
      </g>
     </g>
     <g id="text_14">
      <!-- 2014-12-15 -->
      <g transform="translate(364.047662 317.730484)scale(0.045 -0.045)">
       <defs>
        <path id="FangSong-35" d="M 1700 2750 
Q 2175 2750 2475 2387 
Q 2775 2025 2775 1425 
Q 2775 750 2462 350 
Q 2150 -50 1500 -50 
Q 1050 -50 700 212 
Q 350 475 350 850 
Q 350 1000 437 1112 
Q 525 1225 675 1225 
Q 825 1225 875 1125 
Q 925 1025 925 950 
Q 925 800 850 712 
Q 775 625 775 525 
Q 775 325 1012 225 
Q 1250 125 1525 125 
Q 1925 125 2137 450 
Q 2350 775 2350 1375 
Q 2350 1875 2162 2187 
Q 1975 2500 1600 2500 
Q 1325 2500 1125 2400 
Q 925 2300 750 1975 
L 525 2000 
L 650 4275 
L 2700 4275 
L 2625 3900 
L 825 3900 
L 725 2250 
Q 975 2600 1212 2675 
Q 1450 2750 1700 2750 
z
" transform="scale(0.015625)"/>
       </defs>
       <use xlink:href="#FangSong-32"/>
       <use xlink:href="#FangSong-30" x="50"/>
       <use xlink:href="#FangSong-31" x="100"/>
       <use xlink:href="#FangSong-34" x="150"/>
       <use xlink:href="#FangSong-2d" x="200"/>
       <use xlink:href="#FangSong-31" x="250"/>
       <use xlink:href="#FangSong-32" x="300"/>
       <use xlink:href="#FangSong-2d" x="350"/>
       <use xlink:href="#FangSong-31" x="400"/>
       <use xlink:href="#FangSong-35" x="450"/>
      </g>
     </g>
    </g>
    <g id="xtick_15">
     <g id="line2d_15">
      <g>
       <use xlink:href="#mbbbec35332" x="398.487273" y="307.584" style="stroke: #000000; stroke-width: 0.8"/>
      </g>
     </g>
     <g id="text_15">
      <!-- 2014-12-17 -->
      <g transform="translate(387.237273 317.730484)scale(0.045 -0.045)">
       <use xlink:href="#FangSong-32"/>
       <use xlink:href="#FangSong-30" x="50"/>
       <use xlink:href="#FangSong-31" x="100"/>
       <use xlink:href="#FangSong-34" x="150"/>
       <use xlink:href="#FangSong-2d" x="200"/>
       <use xlink:href="#FangSong-31" x="250"/>
       <use xlink:href="#FangSong-32" x="300"/>
       <use xlink:href="#FangSong-2d" x="350"/>
       <use xlink:href="#FangSong-31" x="400"/>
       <use xlink:href="#FangSong-37" x="450"/>
      </g>
     </g>
    </g>
    <g id="text_16">
     <!-- 日期 -->
     <g transform="translate(226.16 330.154312)scale(0.1 -0.1)">
      <defs>
       <path id="FangSong-65e5" d="M 4825 4900 
L 5150 4625 
L 4950 4425 
Q 4800 525 4712 37 
Q 4625 -450 4562 -325 
Q 4500 -200 4450 300 
L 2125 150 
Q 2150 -525 2025 -325 
L 1775 100 
Q 1925 250 1900 675 
L 1875 4075 
Q 1875 4425 1775 4875 
L 1850 4900 
L 2075 4400 
L 4650 4625 
L 4825 4900 
z
M 2100 2550 
Q 3950 2700 4075 2800 
L 4350 2525 
Q 3875 2500 2100 2300 
L 2125 375 
Q 3975 475 4200 550 
L 4475 300 
Q 4575 500 4725 4400 
L 2075 4150 
L 2100 2550 
z
" transform="scale(0.015625)"/>
       <path id="FangSong-671f" d="M 4175 1900 
Q 4850 2000 4950 2075 
L 5200 1825 
Q 5000 1800 4150 1675 
Q 4075 1025 3775 412 
Q 3475 -200 3000 -675 
L 2900 -600 
Q 3300 -150 3575 475 
Q 3800 950 3875 1450 
Q 3475 1425 2275 1250 
Q 1050 1075 725 1000 
L 425 1250 
Q 925 1275 1475 1375 
L 1475 3625 
Q 1100 3575 925 3525 
L 600 3775 
Q 1050 3775 1475 3850 
L 1475 4300 
Q 1475 4800 1325 5000 
L 1375 5075 
L 1800 4750 
Q 1675 4750 1700 4300 
L 1700 3875 
L 2800 4050 
L 2800 4550 
Q 2800 4925 2675 5175 
L 2725 5225 
L 3150 4900 
Q 3000 4875 3025 4525 
L 3025 4075 
Q 3350 4125 3425 4175 
L 3700 3900 
Q 3300 3875 3025 3825 
L 3000 1575 
Q 3475 1650 3650 1700 
L 3900 1600 
Q 4000 2525 4000 3400 
Q 4000 4300 3875 4650 
L 3975 4675 
L 4175 4225 
L 5225 4425 
L 5350 4675 
L 5675 4450 
L 5500 4250 
L 5500 300 
Q 5500 -325 5325 -675 
Q 5025 -275 4400 225 
L 4450 300 
L 5225 -150 
Q 5275 75 5275 400 
L 5275 4200 
L 4250 4000 
L 4250 3050 
Q 4775 3150 4950 3225 
L 5175 3000 
Q 4875 2950 4250 2825 
Q 4250 2400 4175 1900 
z
M 1700 2300 
Q 2275 2350 2475 2425 
L 2675 2200 
Q 2425 2175 1700 2075 
L 1700 1425 
L 2750 1550 
L 2775 3800 
L 1700 3650 
L 1700 3050 
Q 2225 3125 2425 3200 
L 2650 2975 
Q 2425 2950 1700 2825 
L 1700 2300 
z
M 425 -375 
Q 1000 100 1312 437 
Q 1625 775 1625 975 
L 1700 1000 
L 1875 550 
Q 1775 550 1425 225 
Q 1075 -100 475 -475 
L 425 -375 
z
M 3100 75 
Q 2825 550 2525 1025 
L 2575 1075 
Q 2925 800 3225 500 
Q 3200 275 3100 75 
z
" transform="scale(0.015625)"/>
      </defs>
      <use xlink:href="#FangSong-65e5"/>
      <use xlink:href="#FangSong-671f" x="100"/>
     </g>
    </g>
   </g>
   <g id="matplotlib.axis_2">
    <g id="ytick_1">
     <g id="line2d_16">
      <defs>
       <path id="m837d80db62" d="M 0 0 
L -3.5 0 
" style="stroke: #000000; stroke-width: 0.8"/>
      </defs>
      <g>
       <use xlink:href="#m837d80db62" x="57.6" y="299.045647" style="stroke: #000000; stroke-width: 0.8"/>
      </g>
     </g>
     <g id="text_17">
      <!-- 0 -->
      <g transform="translate(45.6 302.541741)scale(0.1 -0.1)">
       <use xlink:href="#FangSong-30"/>
      </g>
     </g>
    </g>
    <g id="ytick_2">
     <g id="line2d_17">
      <g>
       <use xlink:href="#m837d80db62" x="57.6" y="263.469176" style="stroke: #000000; stroke-width: 0.8"/>
      </g>
     </g>
     <g id="text_18">
      <!-- 10 -->
      <g transform="translate(40.6 266.96527)scale(0.1 -0.1)">
       <use xlink:href="#FangSong-31"/>
       <use xlink:href="#FangSong-30" x="50"/>
      </g>
     </g>
    </g>
    <g id="ytick_3">
     <g id="line2d_18">
      <g>
       <use xlink:href="#m837d80db62" x="57.6" y="227.892706" style="stroke: #000000; stroke-width: 0.8"/>
      </g>
     </g>
     <g id="text_19">
      <!-- 20 -->
      <g transform="translate(40.6 231.3888)scale(0.1 -0.1)">
       <use xlink:href="#FangSong-32"/>
       <use xlink:href="#FangSong-30" x="50"/>
      </g>
     </g>
    </g>
    <g id="ytick_4">
     <g id="line2d_19">
      <g>
       <use xlink:href="#m837d80db62" x="57.6" y="192.316235" style="stroke: #000000; stroke-width: 0.8"/>
      </g>
     </g>
     <g id="text_20">
      <!-- 30 -->
      <g transform="translate(40.6 195.812329)scale(0.1 -0.1)">
       <use xlink:href="#FangSong-33"/>
       <use xlink:href="#FangSong-30" x="50"/>
      </g>
     </g>
    </g>
    <g id="ytick_5">
     <g id="line2d_20">
      <g>
       <use xlink:href="#m837d80db62" x="57.6" y="156.739765" style="stroke: #000000; stroke-width: 0.8"/>
      </g>
     </g>
     <g id="text_21">
      <!-- 40 -->
      <g transform="translate(40.6 160.235858)scale(0.1 -0.1)">
       <use xlink:href="#FangSong-34"/>
       <use xlink:href="#FangSong-30" x="50"/>
      </g>
     </g>
    </g>
    <g id="ytick_6">
     <g id="line2d_21">
      <g>
       <use xlink:href="#m837d80db62" x="57.6" y="121.163294" style="stroke: #000000; stroke-width: 0.8"/>
      </g>
     </g>
     <g id="text_22">
      <!-- 50 -->
      <g transform="translate(40.6 124.659388)scale(0.1 -0.1)">
       <use xlink:href="#FangSong-35"/>
       <use xlink:href="#FangSong-30" x="50"/>
      </g>
     </g>
    </g>
    <g id="ytick_7">
     <g id="line2d_22">
      <g>
       <use xlink:href="#m837d80db62" x="57.6" y="85.586824" style="stroke: #000000; stroke-width: 0.8"/>
      </g>
     </g>
     <g id="text_23">
      <!-- 60 -->
      <g transform="translate(40.6 89.082917)scale(0.1 -0.1)">
       <defs>
        <path id="FangSong-36" d="M 750 1700 
Q 750 950 1012 537 
Q 1275 125 1650 125 
Q 2025 125 2225 400 
Q 2425 675 2425 1425 
Q 2425 1925 2212 2200 
Q 2000 2475 1700 2475 
Q 1425 2475 1187 2312 
Q 950 2150 750 1700 
z
M 1725 2725 
Q 2325 2725 2587 2325 
Q 2850 1925 2850 1425 
Q 2850 675 2487 312 
Q 2125 -50 1650 -50 
Q 975 -50 625 462 
Q 275 975 275 1950 
Q 275 3100 700 3712 
Q 1125 4325 1850 4325 
Q 2200 4325 2412 4125 
Q 2625 3925 2625 3775 
Q 2625 3625 2562 3550 
Q 2500 3475 2350 3475 
Q 2225 3475 2162 3537 
Q 2100 3600 2100 3725 
Q 2100 3775 2112 3825 
Q 2125 3875 2125 3925 
Q 2125 4025 2050 4087 
Q 1975 4150 1775 4150 
Q 1350 4150 1050 3762 
Q 750 3375 750 2075 
Q 900 2400 1162 2562 
Q 1425 2725 1725 2725 
z
" transform="scale(0.015625)"/>
       </defs>
       <use xlink:href="#FangSong-36"/>
       <use xlink:href="#FangSong-30" x="50"/>
      </g>
     </g>
    </g>
    <g id="ytick_8">
     <g id="line2d_23">
      <g>
       <use xlink:href="#m837d80db62" x="57.6" y="50.010353" style="stroke: #000000; stroke-width: 0.8"/>
      </g>
     </g>
     <g id="text_24">
      <!-- 70 -->
      <g transform="translate(40.6 53.506447)scale(0.1 -0.1)">
       <use xlink:href="#FangSong-37"/>
       <use xlink:href="#FangSong-30" x="50"/>
      </g>
     </g>
    </g>
    <g id="text_25">
     <!-- 4种购物活动次数 -->
     <g transform="translate(35.154688 212.028)rotate(-90)scale(0.1 -0.1)">
      <defs>
       <path id="FangSong-79cd" d="M 5400 3825 
L 5700 3575 
L 5525 3375 
L 5375 2150 
L 5575 1900 
L 4350 1800 
L 4325 -275 
Q 4325 -750 4200 -600 
L 3950 -175 
Q 4100 -100 4100 325 
L 4125 1775 
L 3325 1700 
Q 3325 1375 3287 1400 
Q 3250 1425 3000 1725 
Q 3100 1825 3100 2025 
L 3100 3050 
Q 3100 3400 3000 3700 
L 3075 3750 
L 3325 3350 
L 4125 3450 
L 4150 4450 
Q 4150 4975 4000 5150 
L 4050 5225 
L 4525 4800 
Q 4375 4775 4375 4425 
L 4350 3475 
L 5275 3600 
L 5400 3825 
z
M 2750 1825 
Q 2550 2075 2100 2525 
L 2075 -275 
Q 2075 -725 2000 -575 
L 1750 -150 
Q 1850 -25 1850 200 
L 1875 2475 
Q 1375 1425 550 450 
L 475 550 
Q 1175 1500 1800 2950 
Q 1225 2850 900 2775 
L 600 3025 
Q 925 3025 1875 3175 
L 1900 4250 
Q 1450 4050 825 3850 
L 800 3950 
Q 1450 4225 2025 4562 
Q 2600 4900 2600 5025 
L 2675 5050 
L 2975 4750 
Q 2825 4725 2662 4650 
Q 2500 4575 2125 4375 
L 2100 3200 
Q 2500 3275 2625 3350 
L 2875 3100 
Q 2675 3100 2100 2975 
L 2100 2700 
Q 2575 2375 2800 2250 
Q 2800 2050 2750 1825 
z
M 4350 2025 
L 5125 2100 
L 5275 3350 
L 4350 3250 
L 4350 2025 
z
M 3325 1925 
L 4125 2000 
L 4125 3225 
L 3325 3150 
L 3325 1925 
z
" transform="scale(0.015625)"/>
       <path id="FangSong-8d2d" d="M 2800 2400 
Q 3300 3275 3625 4162 
Q 3950 5050 3800 5200 
L 3875 5250 
L 4225 4825 
Q 4150 4850 4012 4525 
Q 3875 4200 3650 3650 
Q 3950 3675 5400 4000 
L 5550 4250 
L 5875 3950 
L 5675 3775 
Q 5425 75 4975 -650 
Q 4700 -250 4000 400 
L 4025 475 
L 4950 -150 
Q 5250 825 5425 3750 
Q 4000 3475 3875 3400 
L 3650 3625 
Q 3325 2975 2875 2350 
L 2800 2400 
z
M 2625 4850 
L 2925 4600 
L 2725 4350 
Q 2700 1725 2600 1450 
L 2325 1875 
Q 2425 1900 2462 2362 
Q 2500 2825 2500 4325 
L 1225 4150 
L 1225 1725 
Q 1250 1225 1150 1325 
L 900 1725 
Q 1000 1900 1000 2175 
L 1000 4050 
Q 1000 4425 900 4775 
L 975 4825 
L 1200 4400 
L 2450 4550 
L 2625 4850 
z
M 1675 3825 
L 2025 3500 
Q 1975 3450 1925 2700 
Q 1900 1925 1775 1275 
Q 2325 925 2825 550 
Q 2825 375 2725 100 
Q 2325 625 1750 1175 
Q 1425 225 500 -625 
L 425 -550 
Q 975 25 1275 600 
Q 1575 1175 1650 1912 
Q 1725 2650 1737 3137 
Q 1750 3625 1625 3750 
L 1675 3825 
z
M 5050 1425 
Q 4950 1225 4875 1050 
L 4600 1550 
Q 3500 1275 3175 1100 
L 3000 1475 
L 3225 1500 
Q 3525 2050 3712 2537 
Q 3900 3025 3825 3225 
L 3875 3250 
L 4200 2825 
Q 4125 2875 3912 2437 
Q 3700 2000 3400 1475 
L 4525 1675 
L 4125 2275 
L 4200 2325 
Q 4725 1800 5050 1425 
z
" transform="scale(0.015625)"/>
       <path id="FangSong-7269" d="M 5625 3775 
L 5925 3500 
L 5725 3300 
Q 5250 -50 4825 -675 
Q 4600 -350 3975 325 
L 4025 375 
L 4775 -150 
Q 5075 475 5475 3275 
L 4600 3150 
L 4900 2975 
Q 4800 2875 4625 2300 
Q 4475 1725 4050 1012 
Q 3625 300 2600 -425 
L 2525 -350 
Q 4325 1100 4525 3125 
L 3850 3000 
L 4100 2800 
Q 4000 2800 3900 2500 
Q 3800 2200 3512 1675 
Q 3225 1150 2600 550 
L 2525 625 
Q 3450 1600 3800 3000 
Q 3675 2975 3525 2925 
L 3400 3175 
Q 3100 2450 2725 1975 
L 2625 2075 
Q 2975 2600 3187 3137 
Q 3400 3675 3587 4350 
Q 3775 5025 3650 5150 
L 3725 5200 
L 4100 4750 
Q 4000 4800 3862 4400 
Q 3725 4000 3425 3225 
Q 3700 3225 5450 3525 
L 5625 3775 
z
M 2125 -375 
Q 2150 -750 2000 -550 
L 1800 -150 
Q 1925 -50 1900 250 
L 1925 1825 
Q 925 1225 850 1150 
L 450 1350 
Q 750 1425 1925 2050 
L 1925 3150 
Q 1550 3100 1450 3000 
L 1250 3200 
Q 1000 2500 650 2025 
L 550 2100 
Q 950 2825 1112 3525 
Q 1275 4225 1175 4350 
L 1225 4400 
L 1600 4075 
Q 1475 4075 1425 3850 
Q 1375 3625 1275 3275 
L 1925 3375 
L 1950 4500 
Q 1975 5025 1800 5175 
L 1875 5250 
L 2350 4875 
Q 2150 4825 2175 4400 
L 2150 3425 
Q 2650 3525 2725 3600 
L 3000 3325 
Q 2700 3300 2150 3200 
L 2150 2175 
L 2725 2475 
L 2775 2350 
L 2150 2000 
L 2125 -375 
z
" transform="scale(0.015625)"/>
       <path id="FangSong-6d3b" d="M 675 625 
L 1250 250 
L 2225 3350 
L 2325 3325 
Q 2275 3175 2250 3050 
Q 2675 3025 3800 3200 
L 3825 3900 
Q 3825 4200 3725 4425 
Q 2975 4175 2425 4050 
L 2400 4175 
Q 3425 4500 4175 4800 
Q 4925 5100 4925 5200 
L 4975 5225 
L 5250 4925 
Q 4975 4850 4650 4737 
Q 4325 4625 3725 4450 
L 4150 4200 
Q 4050 4175 4050 3975 
L 4025 3225 
Q 5600 3400 5575 3450 
L 5925 3175 
Q 5575 3175 4025 2975 
L 4000 1725 
L 4875 1825 
L 5050 2050 
L 5350 1750 
L 5150 1575 
L 4975 200 
L 5175 -25 
L 3025 -200 
Q 3050 -650 2950 -625 
L 2700 -250 
Q 2775 -225 2775 50 
L 2750 1250 
Q 2750 1600 2625 1925 
L 2725 1950 
L 2975 1625 
L 3775 1700 
L 3800 2950 
Q 2700 2825 2575 2775 
L 2250 3000 
Q 1675 675 1375 -375 
Q 1175 -50 625 550 
L 675 625 
z
M 4725 175 
L 4900 1575 
L 2975 1375 
L 3000 50 
L 4725 175 
z
M 1875 3950 
Q 1625 4400 1200 4900 
L 1250 4975 
L 2000 4425 
Q 1975 4175 1875 3950 
z
M 1325 2225 
Q 1050 2650 600 3150 
L 650 3225 
Q 1200 2850 1425 2700 
Q 1375 2425 1325 2225 
z
" transform="scale(0.015625)"/>
       <path id="FangSong-52a8" d="M 4325 3175 
Q 4125 1700 3637 837 
Q 3150 -25 2275 -650 
L 2200 -550 
Q 3050 125 3475 1000 
Q 3900 1875 4100 3125 
Q 3775 3075 3500 2975 
L 3150 3275 
Q 3350 3250 4125 3350 
Q 4175 4125 4200 4562 
Q 4225 5000 4100 5150 
L 4150 5225 
L 4575 4900 
Q 4475 4850 4437 4475 
Q 4400 4100 4350 3400 
L 5325 3550 
L 5475 3775 
L 5775 3525 
L 5600 3350 
Q 5500 2125 5337 1037 
Q 5175 -50 4875 -650 
Q 4550 -125 3925 425 
L 3975 500 
L 4850 -100 
Q 5025 450 5137 1262 
Q 5250 2075 5375 3325 
L 4325 3175 
z
M 2200 1900 
L 2275 1925 
Q 2725 1500 3100 1050 
Q 3050 875 2925 625 
Q 2825 900 2725 1075 
Q 2325 950 1712 775 
Q 1100 600 900 450 
L 675 850 
L 975 900 
Q 1225 1275 1500 1900 
Q 1775 2525 1775 2700 
Q 850 2600 850 2525 
L 500 2850 
Q 725 2800 1900 2937 
Q 3075 3075 3075 3125 
L 3325 2825 
Q 2975 2850 1825 2700 
L 2050 2450 
Q 2000 2425 1875 2125 
Q 1725 1825 1175 875 
L 2675 1200 
L 2200 1900 
z
M 3125 4200 
Q 2725 4200 2112 4137 
Q 1500 4075 1300 4025 
L 1075 4275 
Q 1475 4275 2162 4362 
Q 2850 4450 2875 4525 
L 3125 4200 
z
" transform="scale(0.015625)"/>
       <path id="FangSong-6b21" d="M 4850 -475 
Q 4900 -400 4550 162 
Q 4200 725 3525 1775 
Q 3050 75 1500 -675 
L 1450 -550 
Q 2000 -250 2387 175 
Q 2775 600 3000 1075 
Q 3225 1550 3337 2150 
Q 3450 2750 3325 2875 
L 3400 2925 
L 3775 2550 
Q 3700 2550 3662 2412 
Q 3625 2275 3575 2050 
Q 4300 900 4550 512 
Q 4800 125 5062 -62 
Q 5325 -250 5975 -225 
L 5975 -375 
L 4850 -475 
z
M 5125 3775 
L 5500 3475 
Q 5350 3425 5137 3150 
Q 4925 2875 4525 2325 
L 4425 2375 
L 4925 3250 
L 3075 3025 
Q 2725 2400 2275 1875 
L 2200 1950 
Q 2875 3000 3225 4000 
Q 3575 5000 3425 5175 
L 3500 5225 
L 3850 4775 
Q 3750 4825 3625 4425 
Q 3500 4025 3175 3275 
L 4950 3475 
L 5125 3775 
z
M 2275 3250 
L 2400 3225 
Q 1650 1400 1225 375 
Q 925 825 425 1275 
L 475 1400 
L 1150 925 
L 2275 3250 
z
M 1925 3550 
Q 1925 3325 1850 3075 
Q 1450 3650 950 4225 
L 1000 4300 
Q 1550 3850 1925 3550 
z
" transform="scale(0.015625)"/>
       <path id="FangSong-6570" d="M 4950 2750 
Q 4875 2675 4737 2262 
Q 4600 1850 4375 1300 
Q 4875 300 5087 37 
Q 5300 -225 6000 -225 
L 6000 -350 
L 4925 -425 
Q 4950 -325 4787 37 
Q 4625 400 4250 1100 
Q 3600 50 2575 -675 
L 2500 -575 
Q 3400 100 4100 1300 
Q 3700 2150 3550 2350 
Q 3400 2050 3250 1825 
L 3150 1875 
Q 3400 2425 3575 2937 
Q 3750 3450 3950 4225 
Q 4150 5000 4025 5100 
L 4100 5150 
L 4425 4800 
Q 4350 4750 4287 4500 
Q 4225 4250 3900 3200 
Q 5325 3375 5475 3475 
L 5775 3200 
Q 5425 3175 4700 3075 
L 4950 2750 
z
M 2975 450 
Q 3000 225 3000 25 
Q 2700 200 2275 400 
Q 1650 -250 550 -625 
L 500 -525 
Q 1475 -75 2025 475 
Q 1675 575 1275 700 
L 1600 1375 
Q 1000 1300 825 1250 
L 525 1525 
Q 825 1525 1700 1625 
Q 1800 1875 1825 2037 
Q 1850 2200 1825 2350 
L 1875 2375 
L 2150 2000 
Q 2075 1975 1950 1650 
L 2725 1725 
Q 2775 1850 2750 2075 
L 2825 2100 
L 3125 1700 
Q 3050 1700 2900 1387 
Q 2750 1075 2450 575 
Q 2650 525 2975 450 
z
M 2350 3600 
L 2650 3625 
Q 2900 4150 2987 4437 
Q 3075 4725 3050 4950 
L 3125 5000 
L 3400 4575 
Q 3325 4550 3212 4337 
Q 3100 4125 2800 3625 
Q 3275 3725 3300 3750 
L 3525 3475 
Q 3250 3475 2350 3375 
L 2350 3225 
Q 2800 3025 3225 2850 
Q 3225 2650 3200 2400 
Q 2850 2750 2350 3075 
L 2350 2375 
Q 2350 2050 2250 2200 
L 2025 2500 
Q 2150 2625 2125 2850 
L 2125 3200 
Q 1350 2300 475 1775 
L 400 1875 
Q 1200 2425 1900 3325 
Q 1050 3225 1000 3175 
L 675 3475 
Q 1050 3450 2125 3575 
L 2125 4475 
Q 2125 4975 2000 5175 
L 2075 5225 
L 2450 4925 
Q 2350 4850 2350 4400 
L 2350 3600 
z
M 3800 2450 
Q 3825 2300 3950 2025 
L 4200 1550 
Q 4325 1800 4487 2375 
Q 4650 2950 4600 3050 
L 3800 2950 
Q 3700 2700 3600 2475 
L 3800 2450 
z
M 2175 650 
Q 2500 1075 2675 1525 
L 1875 1400 
L 1575 800 
L 2175 650 
z
M 1625 3650 
Q 1475 4000 1100 4525 
L 1175 4600 
Q 1475 4350 1825 4025 
Q 1725 3825 1625 3650 
z
" transform="scale(0.015625)"/>
      </defs>
      <use xlink:href="#FangSong-34"/>
      <use xlink:href="#FangSong-79cd" x="50"/>
      <use xlink:href="#FangSong-8d2d" x="150"/>
      <use xlink:href="#FangSong-7269" x="250"/>
      <use xlink:href="#FangSong-6d3b" x="350"/>
      <use xlink:href="#FangSong-52a8" x="450"/>
      <use xlink:href="#FangSong-6b21" x="550"/>
      <use xlink:href="#FangSong-6570" x="650"/>
     </g>
    </g>
   </g>
   <g id="line2d_24">
    <path d="M 73.832727 256.353882 
L 97.022338 291.930353 
L 120.211948 288.372706 
L 143.401558 295.488 
L 166.591169 277.699765 
L 189.780779 206.546824 
L 212.97039 284.815059 
L 236.16 288.372706 
L 259.34961 238.565647 
L 282.539221 245.680941 
L 305.728831 53.568 
L 328.918442 231.450353 
L 352.108052 224.335059 
L 375.297662 267.026824 
L 398.487273 284.815059 
" clip-path="url(#p6b316ec2c5)" style="fill: none; stroke: #1f77b4; stroke-width: 1.5; stroke-linecap: square"/>
   </g>
   <g id="patch_3">
    <path d="M 57.6 307.584 
L 57.6 41.472 
" style="fill: none; stroke: #000000; stroke-width: 0.8; stroke-linejoin: miter; stroke-linecap: square"/>
   </g>
   <g id="patch_4">
    <path d="M 414.72 307.584 
L 414.72 41.472 
" style="fill: none; stroke: #000000; stroke-width: 0.8; stroke-linejoin: miter; stroke-linecap: square"/>
   </g>
   <g id="patch_5">
    <path d="M 57.6 307.584 
L 414.72 307.584 
" style="fill: none; stroke: #000000; stroke-width: 0.8; stroke-linejoin: miter; stroke-linecap: square"/>
   </g>
   <g id="patch_6">
    <path d="M 57.6 41.472 
L 414.72 41.472 
" style="fill: none; stroke: #000000; stroke-width: 0.8; stroke-linejoin: miter; stroke-linecap: square"/>
   </g>
   <g id="text_26">
    <!-- 用户10001082的购物活动时间折线图 -->
    <g transform="translate(140.16 35.472)scale(0.12 -0.12)">
     <defs>
      <path id="FangSong-7528" d="M 3350 3400 
Q 4200 3500 4275 3575 
L 4500 3275 
Q 4250 3275 3350 3150 
L 3350 2225 
Q 4100 2300 4300 2375 
L 4525 2125 
Q 4175 2075 3350 1975 
L 3350 150 
Q 3350 -475 3275 -275 
L 3000 150 
Q 3150 275 3125 575 
L 3125 1950 
Q 2425 1875 2275 1800 
L 2000 2075 
Q 2275 2075 3125 2200 
L 3125 3125 
Q 2475 3050 2300 3000 
L 2050 3250 
Q 2300 3250 3125 3375 
L 3125 4400 
L 1850 4275 
Q 1875 2725 1625 1600 
Q 1375 475 500 -500 
L 425 -400 
Q 1150 525 1362 1500 
Q 1575 2475 1600 3562 
Q 1625 4650 1525 4975 
L 1625 5025 
L 1850 4500 
L 4775 4800 
L 4950 5050 
L 5250 4775 
L 5050 4550 
L 5050 225 
Q 5050 -325 4875 -650 
Q 4650 -300 4050 250 
L 4100 325 
L 4775 -75 
Q 4850 200 4825 475 
L 4825 4575 
L 3350 4425 
L 3350 3400 
z
" transform="scale(0.015625)"/>
      <path id="FangSong-6237" d="M 4800 4150 
L 5100 3850 
L 4925 3675 
L 4725 2400 
L 4925 2175 
L 2025 1925 
Q 1700 350 500 -675 
L 425 -600 
Q 1075 75 1412 825 
Q 1750 1575 1812 2237 
Q 1875 2900 1875 3375 
Q 1875 3850 1825 4175 
L 1925 4200 
L 2100 3675 
L 4650 3900 
L 4800 4150 
z
M 4475 2375 
L 4675 3650 
L 2125 3425 
Q 2125 2875 2050 2175 
L 4475 2375 
z
M 3425 4050 
Q 3175 4575 2775 5150 
L 2900 5200 
Q 3250 4875 3650 4475 
Q 3575 4275 3425 4050 
z
" transform="scale(0.015625)"/>
      <path id="FangSong-7684" d="M 1175 400 
Q 1200 -350 1100 -275 
L 825 200 
Q 950 300 950 825 
L 925 3075 
Q 925 3450 800 3750 
L 900 3800 
L 1150 3400 
L 1400 3425 
Q 1600 4025 1700 4450 
Q 1800 4875 1675 5075 
L 1750 5125 
L 2150 4675 
Q 2050 4700 1912 4362 
Q 1775 4025 1550 3450 
L 2500 3575 
L 2625 3875 
L 2975 3625 
L 2775 3325 
Q 2750 2250 2725 1475 
Q 2700 700 2650 325 
Q 2600 -50 2550 -37 
Q 2500 -25 2350 500 
L 1175 400 
z
M 1175 650 
Q 1950 750 2100 825 
L 2400 525 
Q 2475 800 2487 1537 
Q 2500 2275 2525 3325 
L 1150 3150 
L 1150 2100 
Q 1925 2175 2175 2250 
L 2375 1975 
Q 2025 1950 1175 1825 
L 1175 650 
z
M 5275 3625 
L 5450 3925 
L 5775 3650 
L 5575 3450 
Q 5450 2125 5287 1075 
Q 5125 25 4850 -550 
Q 4525 -175 3850 400 
L 3900 475 
L 4775 -50 
Q 4900 225 5062 1225 
Q 5225 2225 5300 3400 
L 3575 3200 
Q 3300 2575 2875 1925 
L 2775 2000 
Q 3225 2875 3462 3525 
Q 3700 4175 3800 4612 
Q 3900 5050 3800 5150 
L 3875 5200 
L 4250 4775 
Q 4150 4800 4037 4462 
Q 3925 4125 3650 3425 
L 5275 3625 
z
M 4525 1775 
Q 4475 1575 4375 1325 
Q 4025 1925 3550 2550 
L 3625 2625 
Q 4100 2200 4525 1775 
z
" transform="scale(0.015625)"/>
      <path id="FangSong-65f6" d="M 1200 725 
Q 1225 -50 1100 125 
L 875 550 
Q 1000 725 975 1125 
L 975 3350 
Q 975 3850 900 4375 
L 975 4400 
L 1150 3925 
L 2275 4100 
L 2400 4325 
L 2700 4100 
L 2525 3875 
Q 2525 1425 2462 837 
Q 2400 250 2325 337 
Q 2250 425 2200 850 
L 1200 725 
z
M 1200 975 
Q 1925 1050 1975 1100 
L 2225 850 
Q 2275 1625 2275 2175 
L 2275 3825 
L 1200 3675 
L 1200 2525 
Q 1875 2600 2025 2700 
L 2250 2400 
Q 1900 2375 1200 2275 
L 1200 975 
z
M 4325 5250 
L 4775 4875 
Q 4625 4775 4650 4300 
L 4650 3100 
Q 5650 3225 5650 3325 
L 6000 3025 
Q 5625 3000 4650 2875 
L 4650 425 
Q 4675 -350 4475 -675 
Q 4225 -325 3400 275 
L 3450 375 
L 4375 -150 
Q 4425 150 4425 425 
L 4425 2850 
Q 3100 2675 2900 2600 
L 2550 2900 
Q 3000 2900 4425 3075 
L 4425 4400 
Q 4450 4925 4250 5175 
L 4325 5250 
z
M 3525 1275 
Q 3325 1850 3050 2450 
L 3125 2500 
Q 3425 2100 3725 1675 
Q 3650 1500 3525 1275 
z
" transform="scale(0.015625)"/>
      <path id="FangSong-95f4" d="M 4150 1450 
L 2525 1300 
Q 2550 800 2450 900 
L 2225 1275 
Q 2300 1400 2300 1650 
L 2300 2875 
Q 2325 3225 2200 3525 
L 2275 3575 
L 2500 3225 
L 3750 3400 
L 3900 3600 
L 4200 3325 
L 4025 3150 
L 3975 1650 
L 4150 1450 
z
M 5000 4925 
L 5325 4675 
L 5175 4475 
L 5175 450 
Q 5175 -325 4975 -650 
Q 4700 -225 3975 500 
L 4050 575 
L 4875 -75 
Q 4925 -75 4950 425 
L 4950 4475 
Q 3075 4275 2925 4250 
L 2550 4475 
Q 2925 4450 4875 4700 
L 5000 4925 
z
M 3775 3150 
L 2525 3000 
L 2525 2375 
Q 3225 2475 3300 2550 
L 3550 2300 
Q 3300 2300 2525 2175 
L 2525 1525 
L 3725 1650 
L 3775 3150 
z
M 1400 -225 
Q 1425 -675 1325 -550 
L 1075 -175 
Q 1175 -25 1175 350 
L 1175 3475 
Q 1175 3900 1025 4225 
L 1100 4275 
L 1475 3875 
Q 1400 3725 1400 3375 
L 1400 -225 
z
M 1425 5175 
Q 1950 4725 2200 4525 
Q 2125 4275 2050 4075 
Q 1875 4425 1350 5100 
L 1425 5175 
z
" transform="scale(0.015625)"/>
      <path id="FangSong-6298" d="M 4625 -275 
Q 4650 -750 4550 -650 
L 4275 -175 
Q 4425 -75 4400 300 
L 4425 2775 
L 3300 2650 
Q 3275 1475 3000 762 
Q 2725 50 2100 -550 
L 2025 -450 
Q 2500 50 2750 662 
Q 3000 1275 3050 2200 
Q 3100 3125 3075 3775 
Q 3050 4425 2975 4575 
L 3075 4650 
L 3275 4100 
Q 4125 4400 4612 4675 
Q 5100 4950 5075 5050 
L 5150 5075 
L 5475 4800 
Q 5150 4675 4712 4475 
Q 4275 4275 3325 3925 
L 3300 2875 
Q 5700 3100 5675 3200 
L 6000 2900 
Q 5675 2900 4650 2800 
L 4625 -275 
z
M 2875 2650 
L 1975 2150 
L 1975 350 
Q 1975 -125 1825 -500 
Q 1525 -75 850 525 
L 900 600 
L 1700 100 
Q 1750 100 1750 625 
L 1750 2050 
Q 875 1550 850 1500 
L 400 1700 
Q 700 1750 1750 2250 
L 1750 3225 
Q 925 3075 825 3025 
L 525 3275 
Q 900 3325 1750 3475 
L 1750 4500 
Q 1775 5025 1650 5225 
L 1700 5275 
L 2100 4900 
Q 1950 4825 1975 4475 
L 1975 3525 
Q 2625 3650 2750 3700 
L 3000 3450 
Q 2750 3425 1975 3275 
L 1975 2350 
L 2850 2775 
L 2875 2650 
z
" transform="scale(0.015625)"/>
      <path id="FangSong-7ebf" d="M 4100 1125 
Q 4450 1450 4637 1700 
Q 4825 1950 4800 2150 
L 4875 2175 
L 5050 1625 
Q 4950 1650 4775 1475 
Q 4600 1300 4200 875 
Q 4800 0 5425 -200 
L 5475 800 
L 5575 800 
Q 5650 -350 5725 -625 
Q 4700 -350 4025 725 
Q 3425 150 2325 -350 
L 2275 -250 
Q 3150 175 3925 950 
Q 3750 1350 3575 2050 
Q 2975 1875 2900 1825 
L 2550 1975 
Q 2875 2050 3550 2250 
Q 3500 2575 3425 3025 
Q 3075 2950 2950 2875 
L 2650 3025 
Q 2850 3075 3425 3225 
Q 3325 4025 3300 4462 
Q 3275 4900 3125 5125 
L 3200 5200 
L 3650 4825 
Q 3550 4650 3562 4325 
Q 3575 4000 3625 3325 
Q 4550 3600 4600 3675 
L 4950 3475 
Q 4600 3400 3650 3100 
Q 3700 2600 3775 2300 
Q 5000 2725 5050 2800 
L 5400 2600 
Q 5225 2575 3800 2125 
Q 3925 1500 4100 1125 
z
M 2525 1725 
Q 1375 1350 1175 1225 
L 950 1500 
L 1225 1575 
L 1950 2725 
Q 1175 2575 975 2450 
L 775 2750 
L 1050 2875 
Q 1550 3800 1737 4250 
Q 1925 4700 1850 4900 
L 1925 4950 
L 2225 4475 
Q 2125 4525 1812 3937 
Q 1500 3350 1225 2800 
L 2075 2925 
Q 2450 3500 2375 3750 
L 2450 3800 
L 2700 3325 
Q 2600 3325 2337 2925 
Q 2075 2525 1475 1625 
L 2500 1825 
L 2525 1725 
z
M 2825 825 
Q 1100 50 1000 -25 
L 625 200 
Q 1000 250 2775 950 
L 2825 825 
z
M 4700 3900 
Q 4450 4175 3925 4650 
L 3975 4750 
Q 4525 4475 4700 4400 
L 4700 3900 
z
" transform="scale(0.015625)"/>
      <path id="FangSong-56fe" d="M 5375 5050 
L 5675 4775 
L 5450 4550 
Q 5300 25 5262 -275 
Q 5225 -575 5137 -562 
Q 5050 -550 4950 -50 
L 1425 -200 
Q 1450 -675 1350 -675 
L 1075 -200 
Q 1150 -25 1150 175 
L 1125 4250 
Q 1125 4725 1050 5050 
L 1150 5100 
L 1400 4600 
L 5175 4850 
L 5375 5050 
z
M 1400 0 
Q 4100 150 4650 225 
L 4975 25 
Q 5050 200 5075 1825 
L 4175 1675 
Q 4250 1725 3225 2575 
Q 2475 1875 1475 1450 
L 1425 1550 
Q 2275 2000 3075 2725 
Q 2900 2850 2525 3225 
Q 2325 2925 1850 2450 
L 1750 2525 
Q 2500 3400 2950 4450 
L 1375 4350 
L 1400 0 
z
M 3925 3950 
L 4200 3675 
L 4000 3550 
Q 3675 3000 3375 2725 
Q 4000 2175 4250 2050 
Q 4500 1925 5100 1950 
L 5225 4600 
L 3050 4450 
L 3250 4175 
Q 3150 4150 3062 4012 
Q 2975 3875 2800 3625 
L 3750 3775 
L 3925 3950 
z
M 3625 775 
Q 3650 500 3625 250 
Q 3200 700 2500 1275 
L 2600 1375 
Q 3250 975 3625 775 
z
M 2800 3275 
Q 2800 3200 2925 3100 
Q 3050 3000 3200 2850 
Q 3450 3125 3700 3550 
Q 3050 3400 2875 3350 
L 2750 3525 
L 2600 3275 
L 2800 3275 
z
M 2775 2100 
Q 3300 1800 3625 1675 
Q 3650 1425 3625 1225 
Q 3300 1500 2700 1975 
L 2775 2100 
z
" transform="scale(0.015625)"/>
     </defs>
     <use xlink:href="#FangSong-7528"/>
     <use xlink:href="#FangSong-6237" x="100"/>
     <use xlink:href="#FangSong-31" x="200"/>
     <use xlink:href="#FangSong-30" x="250"/>
     <use xlink:href="#FangSong-30" x="300"/>
     <use xlink:href="#FangSong-30" x="350"/>
     <use xlink:href="#FangSong-31" x="400"/>
     <use xlink:href="#FangSong-30" x="450"/>
     <use xlink:href="#FangSong-38" x="500"/>
     <use xlink:href="#FangSong-32" x="550"/>
     <use xlink:href="#FangSong-7684" x="600"/>
     <use xlink:href="#FangSong-8d2d" x="700"/>
     <use xlink:href="#FangSong-7269" x="800"/>
     <use xlink:href="#FangSong-6d3b" x="900"/>
     <use xlink:href="#FangSong-52a8" x="1000"/>
     <use xlink:href="#FangSong-65f6" x="1100"/>
     <use xlink:href="#FangSong-95f4" x="1200"/>
     <use xlink:href="#FangSong-6298" x="1300"/>
     <use xlink:href="#FangSong-7ebf" x="1400"/>
     <use xlink:href="#FangSong-56fe" x="1500"/>
    </g>
   </g>
  </g>
 </g>
 <defs>
  <clipPath id="p6b316ec2c5">
   <rect x="57.6" y="41.472" width="357.12" height="266.112"/>
  </clipPath>
 </defs>
</svg>
