<?xml version="1.0" encoding="utf-8" standalone="no"?>
<!DOCTYPE svg PUBLIC "-//W3C//DTD SVG 1.1//EN"
  "http://www.w3.org/Graphics/SVG/1.1/DTD/svg11.dtd">
<svg xmlns:xlink="http://www.w3.org/1999/xlink" width="460.8pt" height="345.6pt" viewBox="0 0 460.8 345.6" xmlns="http://www.w3.org/2000/svg" version="1.1">
 <metadata>
  <rdf:RDF xmlns:dc="http://purl.org/dc/elements/1.1/" xmlns:cc="http://creativecommons.org/ns#" xmlns:rdf="http://www.w3.org/1999/02/22-rdf-syntax-ns#">
   <cc:Work>
    <dc:type rdf:resource="http://purl.org/dc/dcmitype/StillImage"/>
    <dc:date>2022-05-30T15:26:22.228665</dc:date>
    <dc:format>image/svg+xml</dc:format>
    <dc:creator>
     <cc:Agent>
      <dc:title>Matplotlib v3.5.1, https://matplotlib.org/</dc:title>
     </cc:Agent>
    </dc:creator>
   </cc:Work>
  </rdf:RDF>
 </metadata>
 <defs>
  <style type="text/css">*{stroke-linejoin: round; stroke-linecap: butt}</style>
 </defs>
 <g id="figure_1">
  <g id="patch_1">
   <path d="M 0 345.6 
L 460.8 345.6 
L 460.8 0 
L 0 0 
z
" style="fill: #ffffff"/>
  </g>
  <g id="axes_1">
   <g id="patch_2">
    <path d="M 57.6 307.584 
L 414.72 307.584 
L 414.72 41.472 
L 57.6 41.472 
z
" style="fill: #ffffff"/>
   </g>
   <g id="patch_3">
    <path d="M 73.832727 307.584 
L 100.335139 307.584 
L 100.335139 54.144 
L 73.832727 54.144 
z
" clip-path="url(#pcbb38694cf)" style="fill: #1f77b4"/>
   </g>
   <g id="patch_4">
    <path d="M 106.960742 307.584 
L 133.463154 307.584 
L 133.463154 121.455165 
L 106.960742 121.455165 
z
" clip-path="url(#pcbb38694cf)" style="fill: #1f77b4"/>
   </g>
   <g id="patch_5">
    <path d="M 140.088757 307.584 
L 166.591169 307.584 
L 166.591169 155.568464 
L 140.088757 155.568464 
z
" clip-path="url(#pcbb38694cf)" style="fill: #1f77b4"/>
   </g>
   <g id="patch_6">
    <path d="M 173.216772 307.584 
L 199.719184 307.584 
L 199.719184 157.883968 
L 173.216772 157.883968 
z
" clip-path="url(#pcbb38694cf)" style="fill: #1f77b4"/>
   </g>
   <g id="patch_7">
    <path d="M 206.344787 307.584 
L 232.847199 307.584 
L 232.847199 169.703809 
L 206.344787 169.703809 
z
" clip-path="url(#pcbb38694cf)" style="fill: #1f77b4"/>
   </g>
   <g id="patch_8">
    <path d="M 239.472801 307.584 
L 265.975213 307.584 
L 265.975213 171.884691 
L 239.472801 171.884691 
z
" clip-path="url(#pcbb38694cf)" style="fill: #1f77b4"/>
   </g>
   <g id="patch_9">
    <path d="M 272.600816 307.584 
L 299.103228 307.584 
L 299.103228 179.665861 
L 272.600816 179.665861 
z
" clip-path="url(#pcbb38694cf)" style="fill: #1f77b4"/>
   </g>
   <g id="patch_10">
    <path d="M 305.728831 307.584 
L 332.231243 307.584 
L 332.231243 183.946851 
L 305.728831 183.946851 
z
" clip-path="url(#pcbb38694cf)" style="fill: #1f77b4"/>
   </g>
   <g id="patch_11">
    <path d="M 338.856846 307.584 
L 365.359258 307.584 
L 365.359258 189.735612 
L 338.856846 189.735612 
z
" clip-path="url(#pcbb38694cf)" style="fill: #1f77b4"/>
   </g>
   <g id="patch_12">
    <path d="M 371.984861 307.584 
L 398.487273 307.584 
L 398.487273 189.951007 
L 371.984861 189.951007 
z
" clip-path="url(#pcbb38694cf)" style="fill: #1f77b4"/>
   </g>
   <g id="matplotlib.axis_1">
    <g id="xtick_1">
     <g id="line2d_1">
      <defs>
       <path id="m79d5dd4182" d="M 0 0 
L 0 3.5 
" style="stroke: #000000; stroke-width: 0.8"/>
      </defs>
      <g>
       <use xlink:href="#m79d5dd4182" x="87.083933" y="307.584" style="stroke: #000000; stroke-width: 0.8"/>
      </g>
     </g>
     <g id="text_1">
      <!-- 10095384 -->
      <g transform="translate(75.826433 318.544)scale(0.06 -0.06)">
       <defs>
        <path id="STSong-31" d="M 2272 -19 
Q 1939 0 1523 0 
Q 1107 0 774 -19 
L 774 83 
L 1107 141 
Q 1331 186 1331 390 
L 1331 3552 
L 570 3059 
L 480 3181 
Q 922 3469 1542 4064 
L 1754 4064 
L 1754 390 
Q 1754 173 1978 134 
L 2272 83 
L 2272 -19 
z
" transform="scale(0.015625)"/>
        <path id="STSong-30" d="M 1517 4064 
Q 2048 4064 2435 3465 
Q 2822 2867 2822 1978 
Q 2822 1094 2435 496 
Q 2048 -102 1517 -102 
Q 1005 -102 608 490 
Q 211 1082 211 1978 
Q 211 2867 598 3465 
Q 986 4064 1517 4064 
z
M 1517 45 
Q 1990 45 2172 515 
Q 2355 986 2355 1978 
Q 2355 2970 2172 3443 
Q 1990 3917 1517 3917 
Q 1043 3917 860 3443 
Q 678 2970 678 1978 
Q 678 45 1517 45 
z
" transform="scale(0.015625)"/>
        <path id="STSong-39" d="M 1677 1651 
Q 1498 1555 1299 1555 
Q 890 1555 586 1910 
Q 282 2266 282 2790 
Q 282 3328 627 3696 
Q 973 4064 1466 4064 
Q 2022 4064 2361 3622 
Q 2701 3181 2701 2477 
Q 2701 1485 2096 749 
Q 1491 13 544 -122 
L 518 19 
Q 1331 179 1788 857 
Q 2246 1536 2246 2534 
Q 2246 3200 2022 3561 
Q 1798 3923 1414 3923 
Q 1120 3923 934 3596 
Q 749 3270 749 2733 
Q 749 2291 928 2022 
Q 1107 1754 1402 1754 
Q 1504 1754 1619 1786 
L 1677 1651 
z
" transform="scale(0.015625)"/>
        <path id="STSong-35" d="M 2432 3622 
L 1536 3622 
Q 1037 3622 986 3603 
L 902 2432 
Q 1184 2566 1478 2566 
Q 2003 2566 2368 2208 
Q 2733 1850 2733 1274 
Q 2733 634 2281 266 
Q 1830 -102 1254 -102 
Q 934 -102 665 10 
Q 397 122 397 256 
Q 397 320 454 387 
Q 512 454 614 454 
Q 685 454 730 422 
Q 1178 83 1453 83 
Q 1811 83 2086 393 
Q 2362 704 2362 1126 
Q 2362 1574 2083 1872 
Q 1805 2170 1395 2170 
Q 1216 2170 1059 2112 
Q 902 2054 832 1952 
L 723 1952 
L 845 4000 
L 1542 4000 
Q 2022 4000 2176 4013 
Q 2330 4026 2394 4109 
L 2490 4109 
L 2432 3622 
z
" transform="scale(0.015625)"/>
        <path id="STSong-33" d="M 602 3130 
L 486 3194 
Q 672 3635 934 3849 
Q 1197 4064 1594 4064 
Q 1952 4064 2195 3859 
Q 2438 3654 2438 3405 
Q 2438 3155 2268 2931 
Q 2099 2707 1741 2438 
Q 2208 2470 2489 2163 
Q 2771 1856 2771 1376 
Q 2771 755 2329 326 
Q 1888 -102 1203 -102 
Q 762 -102 531 3 
Q 301 109 301 250 
Q 301 314 361 368 
Q 422 422 493 422 
Q 602 422 742 307 
Q 1101 38 1350 38 
Q 1741 38 2038 377 
Q 2336 717 2336 1203 
Q 2336 1613 2134 1878 
Q 1933 2144 1626 2144 
Q 1389 2144 1139 1926 
L 1069 2048 
Q 1197 2163 1350 2278 
Q 2054 2797 2054 3155 
Q 2054 3418 1878 3578 
Q 1702 3738 1440 3738 
Q 1184 3738 957 3581 
Q 730 3424 602 3130 
z
" transform="scale(0.015625)"/>
        <path id="STSong-38" d="M 1267 1997 
Q 493 2381 493 3040 
Q 493 3437 809 3750 
Q 1126 4064 1555 4064 
Q 2042 4064 2342 3801 
Q 2643 3539 2643 3142 
Q 2643 2797 2451 2585 
Q 2259 2374 1901 2195 
Q 2490 1914 2656 1626 
Q 2822 1338 2822 1050 
Q 2822 582 2473 240 
Q 2125 -102 1606 -102 
Q 1069 -102 749 195 
Q 429 493 429 947 
Q 429 1222 557 1488 
Q 685 1754 1267 1997 
z
M 1760 2272 
Q 2022 2394 2163 2627 
Q 2304 2861 2304 3136 
Q 2304 3475 2109 3696 
Q 1914 3917 1568 3917 
Q 1254 3917 1056 3702 
Q 858 3488 858 3174 
Q 858 3014 915 2860 
Q 973 2707 1232 2528 
Q 1491 2349 1760 2272 
z
M 1421 1926 
Q 1094 1766 953 1532 
Q 813 1299 813 909 
Q 813 518 1037 284 
Q 1261 51 1600 51 
Q 1952 51 2185 284 
Q 2419 518 2419 883 
Q 2419 1267 2185 1497 
Q 1952 1728 1421 1926 
z
" transform="scale(0.015625)"/>
        <path id="STSong-34" d="M 2086 4064 
L 2240 4064 
L 2240 1408 
L 2918 1408 
L 2918 1114 
L 2240 1114 
L 2240 -102 
L 1818 -102 
L 1818 1114 
L 179 1114 
L 179 1325 
L 941 2438 
L 2086 4064 
z
M 1818 1408 
L 1818 3373 
Q 947 2163 486 1408 
L 1818 1408 
z
" transform="scale(0.015625)"/>
       </defs>
       <use xlink:href="#STSong-31"/>
       <use xlink:href="#STSong-30" x="46.899994"/>
       <use xlink:href="#STSong-30" x="93.799988"/>
       <use xlink:href="#STSong-39" x="140.699982"/>
       <use xlink:href="#STSong-35" x="187.599976"/>
       <use xlink:href="#STSong-33" x="234.499969"/>
       <use xlink:href="#STSong-38" x="281.399963"/>
       <use xlink:href="#STSong-34" x="328.299957"/>
      </g>
     </g>
    </g>
    <g id="xtick_2">
     <g id="line2d_2">
      <g>
       <use xlink:href="#m79d5dd4182" x="120.211948" y="307.584" style="stroke: #000000; stroke-width: 0.8"/>
      </g>
     </g>
     <g id="text_2">
      <!-- 100198255 -->
      <g transform="translate(107.547261 318.544)scale(0.06 -0.06)">
       <defs>
        <path id="STSong-32" d="M 2726 -19 
Q 2266 0 1421 0 
Q 595 0 141 -19 
Q 262 230 448 454 
Q 634 678 1043 1088 
Q 1638 1683 1913 2102 
Q 2189 2522 2189 2950 
Q 2189 3302 1968 3520 
Q 1747 3738 1421 3738 
Q 1101 3738 838 3517 
Q 576 3296 474 2893 
L 326 2918 
Q 429 3462 755 3763 
Q 1082 4064 1549 4064 
Q 2016 4064 2342 3753 
Q 2669 3443 2669 3008 
Q 2669 2573 2365 2192 
Q 2061 1811 1446 1242 
Q 1120 941 634 339 
L 2138 339 
Q 2381 339 2480 425 
Q 2579 512 2688 800 
L 2822 800 
L 2726 -19 
z
" transform="scale(0.015625)"/>
       </defs>
       <use xlink:href="#STSong-31"/>
       <use xlink:href="#STSong-30" x="46.899994"/>
       <use xlink:href="#STSong-30" x="93.799988"/>
       <use xlink:href="#STSong-31" x="140.699982"/>
       <use xlink:href="#STSong-39" x="187.599976"/>
       <use xlink:href="#STSong-38" x="234.499969"/>
       <use xlink:href="#STSong-32" x="281.399963"/>
       <use xlink:href="#STSong-35" x="328.299957"/>
       <use xlink:href="#STSong-35" x="375.199951"/>
      </g>
     </g>
    </g>
    <g id="xtick_3">
     <g id="line2d_3">
      <g>
       <use xlink:href="#m79d5dd4182" x="153.339963" y="307.584" style="stroke: #000000; stroke-width: 0.8"/>
      </g>
     </g>
     <g id="text_3">
      <!-- 102122962 -->
      <g transform="translate(140.675275 318.544)scale(0.06 -0.06)">
       <defs>
        <path id="STSong-36" d="M 2458 4083 
L 2509 3962 
Q 1709 3661 1232 2934 
Q 755 2208 755 1376 
Q 755 826 985 432 
Q 1216 38 1549 38 
Q 2266 38 2266 1178 
Q 2266 1658 2080 1926 
Q 1894 2195 1613 2195 
Q 1504 2195 1402 2150 
L 1331 2253 
Q 1536 2342 1747 2342 
Q 2170 2342 2448 2022 
Q 2726 1702 2726 1146 
Q 2726 614 2396 256 
Q 2067 -102 1542 -102 
Q 998 -102 656 323 
Q 314 749 314 1478 
Q 314 2362 893 3088 
Q 1472 3814 2458 4083 
z
" transform="scale(0.015625)"/>
       </defs>
       <use xlink:href="#STSong-31"/>
       <use xlink:href="#STSong-30" x="46.899994"/>
       <use xlink:href="#STSong-32" x="93.799988"/>
       <use xlink:href="#STSong-31" x="140.699982"/>
       <use xlink:href="#STSong-32" x="187.599976"/>
       <use xlink:href="#STSong-32" x="234.499969"/>
       <use xlink:href="#STSong-39" x="281.399963"/>
       <use xlink:href="#STSong-36" x="328.299957"/>
       <use xlink:href="#STSong-32" x="375.199951"/>
      </g>
     </g>
    </g>
    <g id="xtick_4">
     <g id="line2d_4">
      <g>
       <use xlink:href="#m79d5dd4182" x="186.467978" y="307.584" style="stroke: #000000; stroke-width: 0.8"/>
      </g>
     </g>
     <g id="text_4">
      <!-- 101982646 -->
      <g transform="translate(173.80329 318.544)scale(0.06 -0.06)">
       <use xlink:href="#STSong-31"/>
       <use xlink:href="#STSong-30" x="46.899994"/>
       <use xlink:href="#STSong-31" x="93.799988"/>
       <use xlink:href="#STSong-39" x="140.699982"/>
       <use xlink:href="#STSong-38" x="187.599976"/>
       <use xlink:href="#STSong-32" x="234.499969"/>
       <use xlink:href="#STSong-36" x="281.399963"/>
       <use xlink:href="#STSong-34" x="328.299957"/>
       <use xlink:href="#STSong-36" x="375.199951"/>
      </g>
     </g>
    </g>
    <g id="xtick_5">
     <g id="line2d_5">
      <g>
       <use xlink:href="#m79d5dd4182" x="219.595993" y="307.584" style="stroke: #000000; stroke-width: 0.8"/>
      </g>
     </g>
     <g id="text_5">
      <!-- 101458258 -->
      <g transform="translate(206.931305 318.544)scale(0.06 -0.06)">
       <use xlink:href="#STSong-31"/>
       <use xlink:href="#STSong-30" x="46.899994"/>
       <use xlink:href="#STSong-31" x="93.799988"/>
       <use xlink:href="#STSong-34" x="140.699982"/>
       <use xlink:href="#STSong-35" x="187.599976"/>
       <use xlink:href="#STSong-38" x="234.499969"/>
       <use xlink:href="#STSong-32" x="281.399963"/>
       <use xlink:href="#STSong-35" x="328.299957"/>
       <use xlink:href="#STSong-38" x="375.199951"/>
      </g>
     </g>
    </g>
    <g id="xtick_6">
     <g id="line2d_6">
      <g>
       <use xlink:href="#m79d5dd4182" x="252.724007" y="307.584" style="stroke: #000000; stroke-width: 0.8"/>
      </g>
     </g>
     <g id="text_6">
      <!-- 101619772 -->
      <g transform="translate(240.05932 318.544)scale(0.06 -0.06)">
       <defs>
        <path id="STSong-37" d="M 294 4000 
L 2758 4000 
L 2758 3891 
Q 2541 3507 1981 1929 
Q 1421 352 1363 0 
L 1152 0 
Q 1459 1325 2387 3610 
L 659 3610 
Q 499 3610 486 3526 
L 435 3258 
L 294 3258 
L 294 4000 
z
" transform="scale(0.015625)"/>
       </defs>
       <use xlink:href="#STSong-31"/>
       <use xlink:href="#STSong-30" x="46.899994"/>
       <use xlink:href="#STSong-31" x="93.799988"/>
       <use xlink:href="#STSong-36" x="140.699982"/>
       <use xlink:href="#STSong-31" x="187.599976"/>
       <use xlink:href="#STSong-39" x="234.499969"/>
       <use xlink:href="#STSong-37" x="281.399963"/>
       <use xlink:href="#STSong-37" x="328.299957"/>
       <use xlink:href="#STSong-32" x="375.199951"/>
      </g>
     </g>
    </g>
    <g id="xtick_7">
     <g id="line2d_7">
      <g>
       <use xlink:href="#m79d5dd4182" x="285.852022" y="307.584" style="stroke: #000000; stroke-width: 0.8"/>
      </g>
     </g>
     <g id="text_7">
      <!-- 102616570 -->
      <g transform="translate(273.187335 318.544)scale(0.06 -0.06)">
       <use xlink:href="#STSong-31"/>
       <use xlink:href="#STSong-30" x="46.899994"/>
       <use xlink:href="#STSong-32" x="93.799988"/>
       <use xlink:href="#STSong-36" x="140.699982"/>
       <use xlink:href="#STSong-31" x="187.599976"/>
       <use xlink:href="#STSong-36" x="234.499969"/>
       <use xlink:href="#STSong-35" x="281.399963"/>
       <use xlink:href="#STSong-37" x="328.299957"/>
       <use xlink:href="#STSong-30" x="375.199951"/>
      </g>
     </g>
    </g>
    <g id="xtick_8">
     <g id="line2d_8">
      <g>
       <use xlink:href="#m79d5dd4182" x="318.980037" y="307.584" style="stroke: #000000; stroke-width: 0.8"/>
      </g>
     </g>
     <g id="text_8">
      <!-- 101847145 -->
      <g transform="translate(306.31535 318.544)scale(0.06 -0.06)">
       <use xlink:href="#STSong-31"/>
       <use xlink:href="#STSong-30" x="46.899994"/>
       <use xlink:href="#STSong-31" x="93.799988"/>
       <use xlink:href="#STSong-38" x="140.699982"/>
       <use xlink:href="#STSong-34" x="187.599976"/>
       <use xlink:href="#STSong-37" x="234.499969"/>
       <use xlink:href="#STSong-31" x="281.399963"/>
       <use xlink:href="#STSong-34" x="328.299957"/>
       <use xlink:href="#STSong-35" x="375.199951"/>
      </g>
     </g>
    </g>
    <g id="xtick_9">
     <g id="line2d_9">
      <g>
       <use xlink:href="#m79d5dd4182" x="352.108052" y="307.584" style="stroke: #000000; stroke-width: 0.8"/>
      </g>
     </g>
     <g id="text_9">
      <!-- 103954435 -->
      <g transform="translate(339.443364 318.544)scale(0.06 -0.06)">
       <use xlink:href="#STSong-31"/>
       <use xlink:href="#STSong-30" x="46.899994"/>
       <use xlink:href="#STSong-33" x="93.799988"/>
       <use xlink:href="#STSong-39" x="140.699982"/>
       <use xlink:href="#STSong-35" x="187.599976"/>
       <use xlink:href="#STSong-34" x="234.499969"/>
       <use xlink:href="#STSong-34" x="281.399963"/>
       <use xlink:href="#STSong-33" x="328.299957"/>
       <use xlink:href="#STSong-35" x="375.199951"/>
      </g>
     </g>
    </g>
    <g id="xtick_10">
     <g id="line2d_10">
      <g>
       <use xlink:href="#m79d5dd4182" x="385.236067" y="307.584" style="stroke: #000000; stroke-width: 0.8"/>
      </g>
     </g>
     <g id="text_10">
      <!-- 103234309 -->
      <g transform="translate(372.571379 318.544)scale(0.06 -0.06)">
       <use xlink:href="#STSong-31"/>
       <use xlink:href="#STSong-30" x="46.899994"/>
       <use xlink:href="#STSong-33" x="93.799988"/>
       <use xlink:href="#STSong-32" x="140.699982"/>
       <use xlink:href="#STSong-33" x="187.599976"/>
       <use xlink:href="#STSong-34" x="234.499969"/>
       <use xlink:href="#STSong-33" x="281.399963"/>
       <use xlink:href="#STSong-30" x="328.299957"/>
       <use xlink:href="#STSong-39" x="375.199951"/>
      </g>
     </g>
    </g>
    <g id="text_11">
     <!-- user_id -->
     <g transform="translate(221.989688 330.686187)scale(0.1 -0.1)">
      <defs>
       <path id="STSong-75" d="M 102 2438 
L 922 2438 
L 922 787 
Q 922 480 1027 352 
Q 1133 224 1427 224 
Q 1862 224 2227 550 
L 2227 2093 
Q 2227 2214 2131 2256 
Q 2035 2298 1638 2336 
L 1638 2438 
L 2643 2438 
L 2643 557 
Q 2643 339 2710 291 
Q 2778 243 3091 230 
L 3098 134 
L 2227 -96 
L 2227 390 
Q 1946 147 1715 22 
Q 1485 -102 1254 -102 
Q 934 -102 726 134 
Q 518 371 518 762 
L 518 2099 
Q 518 2214 451 2256 
Q 384 2298 102 2349 
L 102 2438 
z
" transform="scale(0.015625)"/>
       <path id="STSong-73" d="M 1792 1843 
Q 1734 2061 1536 2233 
Q 1338 2406 1184 2406 
Q 717 2406 717 1978 
Q 717 1805 870 1686 
Q 1024 1568 1338 1453 
Q 2061 1178 2061 672 
Q 2061 339 1805 118 
Q 1549 -102 1171 -102 
Q 710 -102 416 64 
L 352 787 
L 461 787 
Q 550 448 774 240 
Q 998 32 1254 32 
Q 1459 32 1600 163 
Q 1741 294 1741 493 
Q 1741 858 1139 1082 
Q 717 1242 534 1418 
Q 352 1594 352 1850 
Q 352 2176 595 2365 
Q 838 2554 1248 2554 
Q 1613 2554 1875 2400 
L 1914 1843 
L 1792 1843 
z
" transform="scale(0.015625)"/>
       <path id="STSong-65" d="M 2477 1606 
L 691 1606 
Q 672 1478 672 1350 
Q 672 851 944 537 
Q 1216 224 1683 224 
Q 1907 224 2092 313 
Q 2278 403 2496 608 
L 2522 454 
Q 2074 -102 1363 -102 
Q 896 -102 582 275 
Q 269 653 269 1190 
Q 269 1779 617 2166 
Q 966 2554 1504 2554 
Q 1914 2554 2186 2294 
Q 2458 2035 2477 1606 
z
M 723 1741 
L 1888 1741 
Q 2061 1741 2061 1875 
Q 2061 2010 1933 2208 
Q 1805 2406 1478 2406 
Q 1197 2406 992 2224 
Q 787 2042 723 1741 
z
" transform="scale(0.015625)"/>
       <path id="STSong-72" d="M 134 -26 
L 134 77 
L 454 134 
Q 582 166 617 230 
Q 653 294 653 461 
L 653 1690 
Q 653 1818 598 1875 
Q 544 1933 358 1971 
L 186 2010 
L 198 2106 
Q 448 2195 614 2313 
Q 781 2432 909 2701 
L 1024 2701 
Q 1050 2355 1050 1894 
Q 1171 2125 1401 2339 
Q 1632 2554 1811 2554 
Q 1952 2554 2038 2464 
Q 2125 2374 2125 2234 
Q 2125 2125 2054 2061 
Q 1984 1997 1875 1997 
Q 1779 1997 1670 2042 
Q 1542 2099 1459 2099 
Q 1318 2099 1184 1868 
Q 1050 1638 1050 1510 
L 1050 448 
Q 1050 282 1104 227 
Q 1158 173 1338 147 
L 1830 77 
L 1830 -26 
Q 1485 0 979 0 
Q 499 0 134 -26 
z
" transform="scale(0.015625)"/>
       <path id="STSong-5f" d="M -38 -480 
L 3238 -480 
L 3238 -800 
L -38 -800 
L -38 -480 
z
" transform="scale(0.015625)"/>
       <path id="STSong-69" d="M 717 4096 
Q 826 4096 915 4013 
Q 1005 3930 1005 3821 
Q 1005 3718 912 3638 
Q 819 3558 704 3558 
Q 595 3558 518 3635 
Q 442 3712 442 3821 
Q 442 3930 525 4013 
Q 608 4096 717 4096 
z
M 1421 -26 
Q 1222 0 717 0 
Q 211 0 13 -26 
L 13 77 
L 371 147 
Q 570 186 570 378 
L 570 1882 
Q 570 2035 493 2105 
Q 416 2176 186 2227 
L 186 2317 
Q 640 2432 851 2778 
L 954 2778 
L 954 358 
Q 954 262 982 217 
Q 1011 173 1094 154 
L 1421 77 
L 1421 -26 
z
" transform="scale(0.015625)"/>
       <path id="STSong-64" d="M 2285 3488 
Q 2285 3731 2205 3811 
Q 2125 3891 1786 3974 
L 1786 4077 
Q 2195 4109 2528 4224 
L 2688 4224 
L 2688 435 
Q 2688 218 2755 170 
Q 2822 122 3123 115 
L 3123 13 
Q 2643 -96 2285 -134 
L 2285 160 
Q 1952 26 1728 -38 
Q 1504 -102 1242 -102 
Q 826 -102 518 262 
Q 211 627 211 1114 
Q 211 1709 585 2131 
Q 960 2554 1459 2554 
Q 1958 2554 2285 2381 
L 2285 3488 
z
M 2285 320 
L 2285 1773 
Q 2285 2067 2080 2236 
Q 1875 2406 1523 2406 
Q 1152 2406 909 2073 
Q 666 1741 666 1203 
Q 666 730 934 432 
Q 1203 134 1606 134 
Q 1805 134 1997 188 
Q 2189 243 2285 320 
z
" transform="scale(0.015625)"/>
      </defs>
      <use xlink:href="#STSong-75"/>
      <use xlink:href="#STSong-73" x="48.999985"/>
      <use xlink:href="#STSong-65" x="85.499969"/>
      <use xlink:href="#STSong-72" x="127.199966"/>
      <use xlink:href="#STSong-5f" x="160.499954"/>
      <use xlink:href="#STSong-69" x="210.499939"/>
      <use xlink:href="#STSong-64" x="233.399933"/>
     </g>
    </g>
   </g>
   <g id="matplotlib.axis_2">
    <g id="ytick_1">
     <g id="line2d_11">
      <defs>
       <path id="mf0ae6c8dd3" d="M 0 0 
L -3.5 0 
" style="stroke: #000000; stroke-width: 0.8"/>
      </defs>
      <g>
       <use xlink:href="#mf0ae6c8dd3" x="57.6" y="307.584" style="stroke: #000000; stroke-width: 0.8"/>
      </g>
     </g>
     <g id="text_12">
      <!-- 0 -->
      <g transform="translate(45.909375 310.884)scale(0.1 -0.1)">
       <use xlink:href="#STSong-30"/>
      </g>
     </g>
    </g>
    <g id="ytick_2">
     <g id="line2d_12">
      <g>
       <use xlink:href="#mf0ae6c8dd3" x="57.6" y="253.735068" style="stroke: #000000; stroke-width: 0.8"/>
      </g>
     </g>
     <g id="text_13">
      <!-- 2000 -->
      <g transform="translate(31.8375 257.035068)scale(0.1 -0.1)">
       <use xlink:href="#STSong-32"/>
       <use xlink:href="#STSong-30" x="46.899994"/>
       <use xlink:href="#STSong-30" x="93.799988"/>
       <use xlink:href="#STSong-30" x="140.699982"/>
      </g>
     </g>
    </g>
    <g id="ytick_3">
     <g id="line2d_13">
      <g>
       <use xlink:href="#mf0ae6c8dd3" x="57.6" y="199.886135" style="stroke: #000000; stroke-width: 0.8"/>
      </g>
     </g>
     <g id="text_14">
      <!-- 4000 -->
      <g transform="translate(31.8375 203.186135)scale(0.1 -0.1)">
       <use xlink:href="#STSong-34"/>
       <use xlink:href="#STSong-30" x="46.899994"/>
       <use xlink:href="#STSong-30" x="93.799988"/>
       <use xlink:href="#STSong-30" x="140.699982"/>
      </g>
     </g>
    </g>
    <g id="ytick_4">
     <g id="line2d_14">
      <g>
       <use xlink:href="#mf0ae6c8dd3" x="57.6" y="146.037203" style="stroke: #000000; stroke-width: 0.8"/>
      </g>
     </g>
     <g id="text_15">
      <!-- 6000 -->
      <g transform="translate(31.8375 149.337203)scale(0.1 -0.1)">
       <use xlink:href="#STSong-36"/>
       <use xlink:href="#STSong-30" x="46.899994"/>
       <use xlink:href="#STSong-30" x="93.799988"/>
       <use xlink:href="#STSong-30" x="140.699982"/>
      </g>
     </g>
    </g>
    <g id="ytick_5">
     <g id="line2d_15">
      <g>
       <use xlink:href="#mf0ae6c8dd3" x="57.6" y="92.188271" style="stroke: #000000; stroke-width: 0.8"/>
      </g>
     </g>
     <g id="text_16">
      <!-- 8000 -->
      <g transform="translate(31.8375 95.488271)scale(0.1 -0.1)">
       <use xlink:href="#STSong-38"/>
       <use xlink:href="#STSong-30" x="46.899994"/>
       <use xlink:href="#STSong-30" x="93.799988"/>
       <use xlink:href="#STSong-30" x="140.699982"/>
      </g>
     </g>
    </g>
    <g id="text_17">
     <!-- 活跃度 -->
     <g transform="translate(25.267187 189.528)rotate(-90)scale(0.1 -0.1)">
      <defs>
       <path id="STSong-6d3b" d="M 6112 2848 
Q 6176 2784 6176 2758 
Q 6176 2733 6086 2733 
L 4141 2733 
L 4077 1510 
L 4960 1510 
L 5120 1805 
L 5523 1549 
Q 5581 1517 5581 1488 
Q 5581 1459 5523 1421 
L 5344 1286 
L 5344 70 
Q 5344 -205 5357 -416 
Q 5370 -627 5370 -672 
Q 5370 -781 5245 -825 
Q 5120 -870 5081 -870 
Q 5043 -870 5043 -794 
L 5043 -346 
L 2912 -346 
L 2912 -717 
Q 2912 -832 2797 -873 
Q 2682 -915 2662 -915 
Q 2598 -915 2598 -755 
L 2618 90 
L 2618 1139 
Q 2618 1504 2598 1798 
L 2982 1510 
L 3782 1510 
L 3846 2733 
L 2630 2733 
Q 2381 2733 2202 2662 
L 2022 2899 
Q 2330 2874 2490 2874 
L 3846 2874 
L 3910 4237 
Q 3328 4186 2445 4160 
L 2445 4250 
Q 4211 4474 5472 4800 
L 5664 4506 
Q 5702 4448 5702 4419 
Q 5702 4390 5670 4390 
Q 5638 4390 5561 4409 
Q 5485 4429 5389 4429 
Q 5293 4429 4909 4368 
Q 4525 4307 4205 4269 
L 4141 2874 
L 5446 2874 
L 5696 3238 
L 6112 2848 
z
M 5043 -205 
L 5043 1370 
L 2912 1370 
L 2912 -205 
L 5043 -205 
z
M 736 4717 
Q 1242 4602 1472 4426 
Q 1702 4250 1702 4045 
Q 1702 3936 1648 3843 
Q 1594 3750 1533 3750 
Q 1472 3750 1430 3785 
Q 1389 3821 1334 3974 
Q 1280 4128 1155 4285 
Q 1030 4442 698 4646 
L 736 4717 
z
M 2234 3981 
L 1696 1888 
Q 1434 883 1414 761 
Q 1395 640 1395 409 
Q 1395 179 1443 -99 
Q 1491 -378 1491 -538 
Q 1491 -698 1430 -784 
Q 1370 -870 1238 -870 
Q 1107 -870 1065 -803 
Q 1024 -736 1024 -589 
Q 1024 -442 1094 -61 
Q 1165 320 1165 448 
Q 1165 576 1145 640 
Q 1126 704 1072 742 
Q 1018 781 790 829 
Q 563 877 339 896 
L 352 992 
Q 557 986 761 986 
Q 966 986 1059 1030 
Q 1152 1075 1197 1210 
L 2150 4013 
L 2234 3981 
z
M 250 3302 
Q 602 3213 928 3024 
Q 1254 2835 1254 2630 
Q 1254 2522 1187 2435 
Q 1120 2349 1043 2349 
Q 966 2349 915 2490 
Q 838 2688 694 2848 
Q 550 3008 211 3232 
L 250 3302 
z
" transform="scale(0.015625)"/>
       <path id="STSong-8dc3" d="M 2931 1555 
Q 2957 1530 2957 1510 
Q 2957 1491 2899 1491 
L 1939 1491 
L 1939 243 
L 2867 512 
L 2886 442 
L 1120 -262 
Q 576 -474 461 -614 
Q 429 -653 413 -653 
Q 397 -653 378 -627 
L 134 -275 
L 666 -122 
L 666 1402 
Q 666 1837 640 2336 
L 1126 2086 
Q 1165 2067 1165 2051 
Q 1165 2035 1126 2010 
L 966 1914 
L 966 -38 
L 1638 154 
L 1638 2854 
L 1120 2854 
L 1120 2790 
Q 1120 2701 1001 2665 
Q 883 2630 851 2630 
Q 819 2630 806 2656 
Q 794 2682 810 2838 
Q 826 2995 826 3392 
L 826 4154 
Q 826 4499 806 4813 
L 1190 4506 
L 2285 4506 
L 2451 4762 
L 2867 4499 
Q 2918 4467 2918 4448 
Q 2918 4429 2874 4397 
L 2669 4256 
L 2669 3462 
Q 2669 3168 2675 3046 
L 2694 2835 
Q 2694 2752 2569 2704 
Q 2445 2656 2406 2656 
Q 2368 2656 2368 2739 
L 2368 2854 
L 1939 2854 
L 1939 1619 
L 2330 1619 
L 2586 1914 
L 2931 1555 
z
M 2368 2995 
L 2368 4365 
L 1120 4365 
L 1120 2995 
L 2368 2995 
z
M 6227 -416 
L 6214 -493 
Q 6150 -486 6044 -486 
Q 5939 -486 5827 -528 
Q 5715 -570 5680 -618 
Q 5645 -666 5619 -666 
Q 5555 -666 5241 -211 
Q 4928 243 4729 832 
Q 4531 1421 4403 2355 
L 4314 2355 
Q 4147 998 3673 323 
Q 3200 -352 2074 -998 
L 2016 -915 
Q 3130 -134 3520 563 
Q 3910 1261 4026 2355 
L 3258 2355 
Q 3014 2355 2829 2291 
L 2650 2522 
Q 2950 2496 3117 2496 
L 4038 2496 
Q 4102 3130 4122 4096 
Q 3533 4019 3034 3981 
L 3027 4058 
Q 4410 4352 5555 4749 
L 5869 4365 
Q 5888 4339 5888 4323 
Q 5888 4307 5862 4307 
Q 5837 4307 5766 4323 
Q 5696 4339 5577 4339 
Q 5459 4339 5260 4294 
Q 5062 4250 4422 4141 
Q 4410 3149 4333 2496 
L 5350 2496 
L 5638 2854 
L 6086 2432 
Q 6118 2400 6118 2377 
Q 6118 2355 6067 2355 
L 4531 2355 
Q 4762 1152 5155 499 
Q 5549 -154 6227 -416 
z
" transform="scale(0.015625)"/>
       <path id="STSong-5ea6" d="M 2925 4909 
Q 3200 4870 3392 4796 
Q 3584 4723 3661 4646 
Q 3738 4570 3738 4445 
Q 3738 4320 3686 4233 
Q 3635 4147 3548 4147 
Q 3462 4147 3379 4378 
Q 3347 4467 3206 4611 
Q 3066 4755 2899 4851 
L 2925 4909 
z
M 6010 4019 
Q 6054 3974 6054 3952 
Q 6054 3930 5984 3930 
L 1338 3930 
L 1338 2515 
Q 1338 909 1050 128 
Q 762 -653 230 -1043 
L 179 -986 
Q 672 -365 857 300 
Q 1043 966 1043 2470 
L 1043 3635 
Q 1043 4051 1024 4384 
L 1453 4070 
L 5312 4070 
L 5594 4448 
L 6010 4019 
z
M 6022 2938 
Q 6074 2899 6074 2876 
Q 6074 2854 6010 2854 
L 4557 2854 
L 4557 2438 
L 4570 1830 
Q 4570 1734 4442 1699 
Q 4314 1664 4301 1664 
Q 4256 1664 4256 1766 
L 4256 1856 
L 2893 1856 
L 2893 1779 
Q 2893 1722 2867 1699 
Q 2842 1677 2755 1638 
Q 2669 1600 2630 1600 
Q 2592 1600 2592 1683 
L 2598 2227 
L 2598 2854 
L 2189 2854 
Q 1939 2854 1760 2784 
L 1581 3014 
Q 1888 2989 2048 2989 
L 2598 2989 
L 2598 3251 
Q 2598 3578 2579 3840 
L 3046 3622 
Q 3078 3610 3078 3587 
Q 3078 3565 3046 3539 
L 2893 3424 
L 2893 2989 
L 4256 2989 
L 4256 3238 
Q 4256 3686 4237 3859 
L 4678 3661 
Q 4730 3635 4730 3612 
Q 4730 3590 4685 3558 
L 4557 3462 
L 4557 2989 
L 5338 2989 
L 5581 3309 
L 6022 2938 
z
M 4256 1997 
L 4256 2854 
L 2893 2854 
L 2893 1997 
L 4256 1997 
z
M 6227 -666 
Q 6016 -666 5859 -749 
Q 5702 -832 5651 -960 
Q 5638 -986 5600 -986 
Q 5485 -986 4739 -765 
Q 3994 -544 3565 -282 
Q 2720 -947 864 -1107 
L 864 -1011 
Q 2445 -749 3347 -115 
Q 2790 365 2541 1120 
L 2317 1120 
Q 2131 1120 1984 1050 
L 1805 1286 
Q 2112 1261 2272 1261 
L 4358 1261 
L 4563 1498 
L 4934 1210 
Q 4966 1184 4966 1161 
Q 4966 1139 4912 1126 
Q 4858 1114 4787 1059 
Q 4717 1005 4678 954 
Q 4250 307 3789 -102 
Q 4653 -544 6227 -563 
L 6227 -666 
z
M 4384 1120 
L 2675 1120 
Q 2963 435 3539 38 
Q 4147 544 4384 1120 
z
" transform="scale(0.015625)"/>
      </defs>
      <use xlink:href="#STSong-6d3b"/>
      <use xlink:href="#STSong-8dc3" x="99.999985"/>
      <use xlink:href="#STSong-5ea6" x="199.999969"/>
     </g>
    </g>
   </g>
   <g id="patch_13">
    <path d="M 57.6 307.584 
L 57.6 41.472 
" style="fill: none; stroke: #000000; stroke-width: 0.8; stroke-linejoin: miter; stroke-linecap: square"/>
   </g>
   <g id="patch_14">
    <path d="M 414.72 307.584 
L 414.72 41.472 
" style="fill: none; stroke: #000000; stroke-width: 0.8; stroke-linejoin: miter; stroke-linecap: square"/>
   </g>
   <g id="patch_15">
    <path d="M 57.6 307.584 
L 414.72 307.584 
" style="fill: none; stroke: #000000; stroke-width: 0.8; stroke-linejoin: miter; stroke-linecap: square"/>
   </g>
   <g id="patch_16">
    <path d="M 57.6 41.472 
L 414.72 41.472 
" style="fill: none; stroke: #000000; stroke-width: 0.8; stroke-linejoin: miter; stroke-linecap: square"/>
   </g>
   <g id="text_18">
    <!-- 用户活跃度(前10) -->
    <g transform="translate(191.026875 35.472)scale(0.12 -0.12)">
     <defs>
      <path id="STSong-7528" d="M 5658 4454 
L 5466 4288 
L 5466 -358 
Q 5466 -614 5264 -771 
Q 5062 -928 5024 -928 
Q 4986 -928 4973 -864 
Q 4941 -710 4797 -627 
Q 4653 -544 4224 -454 
L 4237 -346 
Q 4678 -422 4851 -422 
Q 5024 -422 5094 -364 
Q 5165 -307 5165 -115 
L 5165 1440 
L 3450 1440 
L 3450 768 
Q 3450 154 3456 -102 
L 3469 -506 
Q 3469 -614 3341 -662 
Q 3213 -710 3187 -710 
Q 3130 -710 3130 -617 
Q 3130 -525 3139 -160 
Q 3149 205 3149 781 
L 3149 1440 
L 1517 1440 
Q 1498 -70 339 -1050 
L 269 -986 
Q 698 -486 893 -86 
Q 1088 314 1161 864 
Q 1235 1414 1235 2419 
L 1235 4102 
Q 1235 4250 1216 4845 
L 1600 4544 
L 5037 4544 
L 5229 4819 
L 5658 4544 
Q 5690 4525 5690 4502 
Q 5690 4480 5658 4454 
z
M 5165 3034 
L 5165 4403 
L 3450 4403 
L 3450 3034 
L 5165 3034 
z
M 3149 3034 
L 3149 4403 
L 1530 4403 
L 1530 3034 
L 3149 3034 
z
M 5165 1581 
L 5165 2893 
L 3450 2893 
L 3450 1581 
L 5165 1581 
z
M 3149 1581 
L 3149 2893 
L 1530 2893 
Q 1530 2515 1517 1581 
L 3149 1581 
z
" transform="scale(0.015625)"/>
      <path id="STSong-6237" d="M 2637 4960 
Q 2976 4832 3193 4697 
Q 3411 4563 3484 4460 
Q 3558 4358 3558 4227 
Q 3558 4096 3484 3990 
Q 3411 3885 3312 3885 
Q 3213 3885 3168 4128 
Q 3136 4275 2982 4496 
Q 2829 4717 2598 4902 
L 2637 4960 
z
M 5459 3693 
L 5248 3552 
L 5248 2349 
Q 5248 2112 5254 1958 
L 5267 1702 
Q 5267 1606 5142 1542 
Q 5018 1478 4982 1478 
Q 4947 1478 4947 1574 
L 4947 1901 
L 1696 1901 
Q 1683 954 1372 237 
Q 1062 -480 250 -1120 
L 179 -1043 
Q 902 -358 1139 275 
Q 1376 909 1376 2112 
L 1376 3277 
Q 1376 3757 1350 4102 
L 1779 3789 
L 4806 3789 
L 5030 4096 
L 5459 3814 
Q 5510 3782 5510 3756 
Q 5510 3731 5459 3693 
z
M 4947 2042 
L 4947 3648 
L 1696 3648 
L 1696 2042 
L 4947 2042 
z
" transform="scale(0.015625)"/>
      <path id="STSong-28" d="M 1901 4198 
L 1984 4032 
Q 1350 3450 1068 2797 
Q 787 2144 787 1286 
Q 787 582 1091 -112 
Q 1395 -806 1965 -1312 
L 1888 -1459 
Q 1242 -992 867 -208 
Q 493 576 493 1389 
Q 493 2208 864 2985 
Q 1235 3763 1901 4198 
z
" transform="scale(0.015625)"/>
      <path id="STSong-524d" d="M 1690 4954 
Q 2662 4512 2662 4134 
Q 2662 3994 2588 3878 
Q 2515 3763 2454 3763 
Q 2394 3763 2368 3801 
Q 2342 3840 2310 3981 
Q 2202 4422 1670 4877 
L 1690 4954 
z
M 6054 3686 
Q 6131 3610 6131 3578 
Q 6131 3546 6029 3546 
L 813 3546 
Q 563 3546 384 3475 
L 205 3712 
Q 416 3686 672 3686 
L 3565 3686 
Q 4083 4422 4326 4941 
L 4762 4621 
Q 4806 4589 4806 4566 
Q 4806 4544 4749 4538 
Q 4608 4525 4448 4390 
Q 4288 4256 3750 3686 
L 5395 3686 
L 5677 4064 
L 6054 3686 
z
M 3174 2675 
L 2963 2528 
L 2963 -499 
Q 2963 -678 2921 -761 
Q 2880 -845 2704 -963 
Q 2528 -1082 2496 -1082 
Q 2464 -1082 2445 -1024 
Q 2406 -890 2272 -800 
Q 2138 -710 1792 -608 
L 1811 -518 
Q 2291 -595 2428 -595 
Q 2566 -595 2617 -572 
Q 2669 -550 2669 -461 
L 2669 710 
L 1280 710 
L 1280 -838 
Q 1280 -941 1155 -998 
Q 1030 -1056 1011 -1056 
Q 960 -1056 960 -902 
L 979 13 
L 979 2240 
Q 979 2669 954 3174 
L 1376 2829 
L 2573 2829 
L 2778 3091 
L 3174 2790 
Q 3226 2758 3226 2732 
Q 3226 2707 3174 2675 
z
M 2669 1843 
L 2669 2688 
L 1280 2688 
L 1280 1843 
L 2669 1843 
z
M 2669 851 
L 2669 1702 
L 1280 1702 
L 1280 851 
L 2669 851 
z
M 5427 2822 
L 5293 2714 
L 5293 -448 
Q 5293 -666 5238 -771 
Q 5184 -877 4973 -1001 
Q 4762 -1126 4730 -1126 
Q 4698 -1126 4678 -1069 
Q 4640 -909 4496 -822 
Q 4352 -736 3898 -614 
L 3917 -531 
Q 4525 -634 4717 -634 
Q 4909 -634 4950 -579 
Q 4992 -525 4992 -384 
L 4992 2234 
Q 4992 2662 4966 3168 
L 5427 2938 
Q 5485 2912 5485 2889 
Q 5485 2867 5427 2822 
z
M 4307 2490 
L 4141 2374 
L 4141 1037 
Q 4141 691 4147 538 
L 4166 275 
Q 4166 211 4038 156 
Q 3910 102 3865 102 
Q 3821 102 3821 218 
L 3834 570 
Q 3840 781 3840 1043 
L 3840 2195 
Q 3840 2368 3821 2867 
L 4301 2605 
Q 4358 2573 4358 2550 
Q 4358 2528 4307 2490 
z
" transform="scale(0.015625)"/>
      <path id="STSong-29" d="M -38 4198 
Q 627 3763 998 2985 
Q 1370 2208 1370 1389 
Q 1370 576 995 -208 
Q 621 -992 -26 -1459 
L -102 -1312 
Q 467 -806 771 -112 
Q 1075 582 1075 1286 
Q 1075 2144 793 2797 
Q 512 3450 -122 4032 
L -38 4198 
z
" transform="scale(0.015625)"/>
     </defs>
     <use xlink:href="#STSong-7528"/>
     <use xlink:href="#STSong-6237" x="99.999985"/>
     <use xlink:href="#STSong-6d3b" x="199.999969"/>
     <use xlink:href="#STSong-8dc3" x="299.999954"/>
     <use xlink:href="#STSong-5ea6" x="399.999939"/>
     <use xlink:href="#STSong-28" x="499.999924"/>
     <use xlink:href="#STSong-524d" x="529.199921"/>
     <use xlink:href="#STSong-31" x="629.199905"/>
     <use xlink:href="#STSong-30" x="676.099899"/>
     <use xlink:href="#STSong-29" x="722.999893"/>
    </g>
   </g>
  </g>
 </g>
 <defs>
  <clipPath id="pcbb38694cf">
   <rect x="57.6" y="41.472" width="357.12" height="266.112"/>
  </clipPath>
 </defs>
</svg>
